<?xml version="1.0" encoding="UTF-8" standalone="no"?>
<!-- Created with Inkscape (http://www.inkscape.org/) -->

<svg
   xmlns:dc="http://purl.org/dc/elements/1.1/"
   xmlns:cc="http://creativecommons.org/ns#"
   xmlns:rdf="http://www.w3.org/1999/02/22-rdf-syntax-ns#"
   xmlns:svg="http://www.w3.org/2000/svg"
   xmlns="http://www.w3.org/2000/svg"
   xmlns:sodipodi="http://sodipodi.sourceforge.net/DTD/sodipodi-0.dtd"
   xmlns:inkscape="http://www.inkscape.org/namespaces/inkscape"
   width="143.41243mm"
   height="25.98704mm"
   viewBox="0 0 143.41243 25.98704"
   version="1.1"
   id="svg131"
   inkscape:version="0.92.4 (5da689c313, 2019-01-14)"
   sodipodi:docname="Linzhi-logo.svg"
   inkscape:export-filename="/home/user/Downloads/linzhi-logo-3500.png"
   inkscape:export-xdpi="619.90002"
   inkscape:export-ydpi="619.90002">
  <defs
     id="defs125" />
  <sodipodi:namedview
     id="base"
     pagecolor="#ffffff"
     bordercolor="#666666"
     borderopacity="1.0"
     inkscape:pageopacity="1"
     inkscape:pageshadow="2"
     inkscape:zoom="1.4"
     inkscape:cx="114.58706"
     inkscape:cy="-70.890646"
     inkscape:document-units="mm"
     inkscape:current-layer="layer1"
     showgrid="false"
     inkscape:window-width="2860"
     inkscape:window-height="1871"
     inkscape:window-x="140"
     inkscape:window-y="55"
     inkscape:window-maximized="1"
     inkscape:snap-intersection-paths="true" />
  <metadata
     id="metadata128">
    <rdf:RDF>
      <cc:Work
         rdf:about="">
        <dc:format>image/svg+xml</dc:format>
        <dc:type
           rdf:resource="http://purl.org/dc/dcmitype/StillImage" />
        <dc:title></dc:title>
      </cc:Work>
    </rdf:RDF>
  </metadata>
  <g
     inkscape:label="Layer 1"
     inkscape:groupmode="layer"
     id="layer1"
     transform="translate(-40.930685,-104.08981)">
    <path
       style="opacity:1;vector-effect:none;fill:#1155cc;fill-opacity:1;fill-rule:nonzero;stroke:none;stroke-width:0.26458332;stroke-linecap:butt;stroke-linejoin:miter;stroke-miterlimit:10;stroke-dasharray:none;stroke-dashoffset:0;stroke-opacity:1"
       inkscape:connector-curvature="0"
       id="path78"
       d="m 40.930685,127.81963 q 2.1456,-4.52272 3.84059,-9.49193 l 1.92237,1.12862 q -1.46762,4.85758 -3.5016,9.26454 0,1.58337 -0.90537,0.45476 z m 17.51211,0.45062 q 0.11576,1.8066 -1.46761,1.8066 h -2.03399 l -0.56637,-2.1456 h 1.35599 q 0.45475,0 0.45475,-0.45062 v -2.93935 h -9.26455 v -1.80661 h 20.11247 v 1.80661 h -8.59069 z m -0.45062,-24.18044 q 1.12861,0.22738 0.11162,0.90537 v 1.57923 h 8.13594 v 1.81075 h -18.64072 v -1.81075 h 8.24756 v -2.4846 z m -11.52591,23.84144 q 3.16673,-1.12861 4.86172,-2.60036 l 1.46761,0.678 q 1.12861,0.56637 -0.339,0.79375 -2.4846,2.1456 -5.19658,2.93522 z m -0.78962,-16.15612 q -1.24437,-1.69499 -3.38997,-3.84473 l 1.69499,-1.69498 q 2.37298,1.81074 3.38997,3.50573 z m 15.7055,13.21677 q 2.14561,1.47174 5.31234,2.37298 l -0.67799,1.92236 q -2.93936,-0.678 -5.76296,-2.8236 z m -11.52591,-3.61322 v -1.81074 h 14.34952 v 1.81074 z m 4.74597,-7.91269 v 1.01699 h 4.63434 v -1.01699 z m -1.91823,2.37298 v -3.72484 h 8.4708 v 3.72484 z m -1.47175,1.13274 h 11.41429 v -5.99033 h -11.41429 z m -2.25722,1.35599 v -8.70231 h 15.92874 v 8.70231 z m 43.49916,-9.94254 q -8.81394,8.02018 -20.90209,10.16579 l -0.56638,-2.37299 q 5.08497,-0.56224 8.36332,-2.03398 -1.58336,-1.24023 -3.50159,-2.59622 -1.81074,1.12861 -3.05098,1.46761 l -0.79375,-1.91823 q 4.97334,-1.92237 8.81393,-6.66833 l 1.92237,0.45062 q 0.90123,0.339 -0.339,0.67799 l -0.90537,1.13275 h 9.38031 l 0.56223,-0.339 1.69499,1.46761 q 0.56637,0.678 -0.67799,0.56638 z m -12.53877,0.11162 -0.45476,0.339 q 2.93936,1.01699 5.76296,2.37298 2.26136,-1.24437 3.84059,-2.71198 z m 1.80661,7.34219 h 2.1456 q 1.01699,0.11575 0.11162,0.67799 v 2.82774 q 0,2.37298 3.84473,5.08496 3.05098,2.1456 7.68118,2.71198 l -0.78961,2.59622 q -7.68532,-1.57923 -11.52591,-7.23057 -1.69499,5.76296 -12.08816,7.45794 l -0.67799,-2.37298 q 6.32519,-0.90537 8.81393,-3.16259 2.48461,-2.26136 2.48461,-6.21771 z m 5.76295,5.87871 q 1.91823,-2.48874 3.1626,-5.31234 l 2.37298,1.01699 q 0.78962,0.56638 -0.339,0.678 -1.35599,2.4846 -3.16259,5.08496 z m -14.01052,1.35599 q 1.69499,-2.37298 2.71198,-5.20072 l 2.25723,0.678 q 0.90537,0.56637 -0.339,0.79375 -1.01699,2.59622 -2.59622,4.9692 z m 9.94255,-10.7363 q -2.26136,-1.35599 -4.97334,-2.59622 l -1.35599,0.90123 q 2.14974,1.35599 4.06797,2.71198 z" />
    <path
       style="opacity:1;vector-effect:none;fill:#1155cc;fill-opacity:1;fill-rule:nonzero;stroke:none;stroke-width:0.26458332;stroke-linecap:butt;stroke-linejoin:miter;stroke-miterlimit:10;stroke-dasharray:none;stroke-dashoffset:0;stroke-opacity:1"
       inkscape:connector-curvature="0"
       id="path80"
       d="m 109.38335,104.49082 h 3.30729 v 20.0918 h 10.40144 v 3.00964 h -13.70873 z m 17.74362,1.48829 q 0.74414,0 1.27331,0.51263 0.52917,0.51263 0.52917,1.25677 0,0.7276 -0.52917,1.25677 -0.52917,0.52916 -1.27331,0.52916 -0.69453,0 -1.2237,-0.53743 -0.52916,-0.53744 -0.52916,-1.2485 0,-0.69454 0.52916,-1.23197 0.52917,-0.53743 1.2237,-0.53743 z m -1.48828,6.3996 h 3.00964 v 15.21355 h -3.00964 z m 10.36836,0 v 1.93477 q 2.01745,-2.23242 4.5806,-2.23242 1.42213,0 2.64583,0.73587 1.2237,0.73587 1.86035,2.01745 0.63666,1.28157 0.63666,4.0597 v 8.69818 h -3.00964 v -8.66511 q 0,-2.33164 -0.71107,-3.33209 -0.71106,-1.00046 -2.38125,-1.00046 -2.1332,0 -3.62148,2.1332 v 10.86446 h -3.07578 v -15.21355 z m 12.50156,0 h 12.99766 l -8.05326,12.40235 h 8.05326 v 2.8112 h -13.32839 l 7.98711,-12.40235 h -7.65638 z m 15.47813,-7.88789 h 3.00963 v 9.88881 q 1.88516,-2.29857 4.67982,-2.29857 1.52135,0 2.72852,0.76068 1.20716,0.76067 1.7942,2.10013 0.58705,1.33945 0.58705,3.98528 v 8.66511 h -3.00964 v -9.40925 q 0,-1.67018 -0.81855,-2.68717 -0.81856,-1.017 -2.15801,-1.017 -0.99219,0 -1.86862,0.51263 -0.87643,0.51264 -1.93477,1.70326 v 10.89753 h -3.00963 z m 18.5539,1.48829 q 0.74414,0 1.27331,0.51263 0.52917,0.51263 0.52917,1.25677 0,0.7276 -0.52917,1.25677 -0.52917,0.52916 -1.27331,0.52916 -0.69453,0 -1.22369,-0.53743 -0.52917,-0.53744 -0.52917,-1.2485 0,-0.69454 0.52917,-1.23197 0.52916,-0.53743 1.22369,-0.53743 z m -1.48828,6.3996 h 3.00964 v 15.21355 h -3.00964 z" />
  </g>
</svg>
