<?xml version="1.0" encoding="UTF-8" standalone="no"?>
<!-- Created with Inkscape (http://www.inkscape.org/) -->

<svg
   xmlns:dc="http://purl.org/dc/elements/1.1/"
   xmlns:cc="http://creativecommons.org/ns#"
   xmlns:rdf="http://www.w3.org/1999/02/22-rdf-syntax-ns#"
   xmlns:svg="http://www.w3.org/2000/svg"
   xmlns="http://www.w3.org/2000/svg"
   xmlns:xlink="http://www.w3.org/1999/xlink"
   xmlns:sodipodi="http://sodipodi.sourceforge.net/DTD/sodipodi-0.dtd"
   xmlns:inkscape="http://www.inkscape.org/namespaces/inkscape"
   width="1430.4974"
   height="1149.1279"
   viewBox="0 0 378.48578 304.0401"
   version="1.1"
   id="svg8"
   sodipodi:docname="decentralize-flag-text.svg"
   inkscape:version="0.92.4 (5da689c313, 2019-01-14)">
  <title
     id="title4757">Decentraland Flag</title>
  <defs
     id="defs2">
    <linearGradient
       inkscape:collect="always"
       id="linearGradient8514">
      <stop
         id="stop8512"
         offset="0"
         style="stop-color:#ffffff;stop-opacity:1" />
      <stop
         id="stop8510"
         offset="1"
         style="stop-color:#ff0000;stop-opacity:1" />
    </linearGradient>
    <radialGradient
       inkscape:collect="always"
       xlink:href="#linearGradient8514"
       id="radialGradient8516"
       cx="-115.47263"
       cy="26.55191"
       fx="-115.47263"
       fy="26.55191"
       r="56.017162"
       gradientTransform="matrix(1.4913172,0,0,1.2889213,293.26065,98.969066)"
       gradientUnits="userSpaceOnUse" />
  </defs>
  <sodipodi:namedview
     id="base"
     pagecolor="#ffffff"
     bordercolor="#666666"
     borderopacity="1.0"
     inkscape:pageopacity="0.0"
     inkscape:pageshadow="2"
     inkscape:zoom="0.9899495"
     inkscape:cx="630.59263"
     inkscape:cy="420.78216"
     inkscape:document-units="px"
     inkscape:current-layer="layer1"
     showgrid="false"
     inkscape:window-width="2860"
     inkscape:window-height="1871"
     inkscape:window-x="140"
     inkscape:window-y="55"
     inkscape:window-maximized="1"
     fit-margin-top="0"
     fit-margin-left="0"
     fit-margin-right="0"
     fit-margin-bottom="0"
     units="px" />
  <metadata
     id="metadata5">
    <rdf:RDF>
      <cc:Work
         rdf:about="">
        <dc:format>image/svg+xml</dc:format>
        <dc:type
           rdf:resource="http://purl.org/dc/dcmitype/StillImage" />
        <dc:title>Decentraland Flag</dc:title>
        <dc:rights>
          <cc:Agent>
            <dc:title>Public Domain</dc:title>
          </cc:Agent>
        </dc:rights>
        <dc:creator>
          <cc:Agent>
            <dc:title>This Version: Linzhi</dc:title>
          </cc:Agent>
        </dc:creator>
        <cc:license
           rdf:resource="http://creativecommons.org/publicdomain/zero/1.0/" />
      </cc:Work>
      <cc:License
         rdf:about="http://creativecommons.org/publicdomain/zero/1.0/">
        <cc:permits
           rdf:resource="http://creativecommons.org/ns#Reproduction" />
        <cc:permits
           rdf:resource="http://creativecommons.org/ns#Distribution" />
        <cc:permits
           rdf:resource="http://creativecommons.org/ns#DerivativeWorks" />
      </cc:License>
    </rdf:RDF>
  </metadata>
  <g
     inkscape:label="Layer 1"
     inkscape:groupmode="layer"
     id="layer1"
     transform="translate(67.886452,14.636243)">
    <ellipse
       style="opacity:1;vector-effect:none;fill:none;fill-opacity:1;stroke:none;stroke-width:0.49074066;stroke-linecap:butt;stroke-linejoin:miter;stroke-miterlimit:4;stroke-dasharray:none;stroke-dashoffset:0;stroke-opacity:1"
       id="path862"
       cx="25.709887"
       cy="-188.53828"
       rx="28.206173"
       ry="27.598192" />
    <rect
       style="opacity:1;vector-effect:none;fill:#000000;fill-opacity:1;stroke:none;stroke-width:0.31731009;stroke-linecap:butt;stroke-linejoin:miter;stroke-miterlimit:4;stroke-dasharray:none;stroke-dashoffset:0;stroke-opacity:1"
       id="rect8686"
       width="378.48578"
       height="304.0401"
       x="-67.886452"
       y="-14.636243" />
    <path
       style="opacity:1;fill:url(#radialGradient8516);fill-opacity:1;stroke:none;stroke-width:0.39519903;stroke-miterlimit:4;stroke-dasharray:none;stroke-opacity:1"
       d="m 79.193387,205.38434 -16.564664,-28.32742 17.161818,9.41925 c 1.261799,0.69254 2.298082,0.1904 3.224965,-1.28015 l 29.556754,-46.89316 -56.665963,-0.9806 c -1.587313,-0.0275 -2.661863,0.9559 -2.639876,2.07492 l 0.419503,21.35063 c 0,0 -12.000232,-19.41905 -16.737906,-28.49747 5.940423,-9.78808 16.067913,-27.84926 16.067913,-27.84926 l -0.07267,20.06409 c -0.0079,2.17429 1.694053,2.92349 2.880341,2.93514 l 56.289078,0.55297 -28.383158,-50.146772 c -0.541274,-0.93082 -1.28899,-1.50954 -2.068144,-1.02235 l -18.299566,10.87271 c 0,0 10.835583,-17.39826 15.428124,-27.32451 l 32.551834,-0.09749 -19.384711,10.751324 c -1.212873,0.847 -0.870795,1.5339 0.08262,2.9389 l 29.015651,50.039668 28.45154,-49.40394 c 0.91219,-1.58294 0.95128,-2.31512 -0.13228,-2.94762 l -18.44285,-11.0916 32.23258,-0.08849 15.47989,28.135984 c -0.12124,0.12125 -17.08833,-10.6965 -17.08833,-10.6965 -1.3769,-0.83684 -2.34661,-0.285722 -3.22987,1.239394 l -27.36951,49.026632 55.81546,0.42321 c 1.1499,0.0565 1.80564,-0.22522 1.81333,-1.87375 l 0.0995,-21.32879 15.90891,27.73297 -15.25903,26.88722 0.13034,-17.79005 c 0.19437,-1.92122 -1.0302,-2.87387 -2.19378,-2.87431 l -57.16852,-0.0218 c 9.09157,16.72804 26.96419,46.85072 26.96419,46.85072 0.98351,1.64315 2.12054,2.38727 4.88282,0.70931 l 16.91148,-9.26958 -15.22839,27.83648 -32.28257,-0.15818 14.49674,-9.92574 c 1.69997,-1.19515 2.59273,-3.1008 1.02921,-5.3644 l -25.04829,-43.6961 -28.742787,45.12979 c -0.864908,1.35802 -0.487613,3.04215 0.889528,3.87627 l 16.646519,10.08264 z"
       id="path127"
       inkscape:connector-curvature="0"
       sodipodi:nodetypes="ccsscsscccssccccccccccccccccccsccccscccccccccsscc" />
    <text
       xml:space="preserve"
       style="font-style:normal;font-variant:normal;font-weight:normal;font-stretch:normal;font-size:10.58333302px;line-height:1.25;font-family:Rachana;-inkscape-font-specification:Rachana;letter-spacing:0px;word-spacing:0px;fill:#ffff00;fill-opacity:1;stroke:#ffff00;stroke-width:0.26458332;stroke-opacity:1"
       id="text79"
       transform="matrix(3.6828661,0,0,3.6828661,25.786015,831.07096)"><textPath
         xlink:href="#path862"
         id="textPath864"><tspan
   style="font-style:normal;font-variant:normal;font-weight:bold;font-stretch:normal;font-family:Rekha;-inkscape-font-specification:'Rekha Bold';fill:#ffff00;fill-opacity:1;stroke:#ffff00;stroke-width:0.26458332;stroke-opacity:1"
   id="tspan77">Decentralize Decentralize Decentralize</tspan></textPath></text>
  </g>
</svg>
