<?xml version="1.0" encoding="UTF-8" standalone="no"?>
<!-- Created with Inkscape (http://www.inkscape.org/) -->

<svg
   xmlns:dc="http://purl.org/dc/elements/1.1/"
   xmlns:cc="http://creativecommons.org/ns#"
   xmlns:rdf="http://www.w3.org/1999/02/22-rdf-syntax-ns#"
   xmlns:svg="http://www.w3.org/2000/svg"
   xmlns="http://www.w3.org/2000/svg"
   xmlns:xlink="http://www.w3.org/1999/xlink"
   xmlns:sodipodi="http://sodipodi.sourceforge.net/DTD/sodipodi-0.dtd"
   xmlns:inkscape="http://www.inkscape.org/namespaces/inkscape"
   width="1430.4974"
   height="1149.1279"
   viewBox="0 0 378.48578 304.0401"
   version="1.1"
   id="svg8"
   sodipodi:docname="decentralize-flag-path.svg"
   inkscape:version="0.92.4 (5da689c313, 2019-01-14)">
  <title
     id="title4757">Decentraland Flag</title>
  <defs
     id="defs2">
    <linearGradient
       inkscape:collect="always"
       id="linearGradient8514">
      <stop
         id="stop8512"
         offset="0"
         style="stop-color:#ffffff;stop-opacity:1" />
      <stop
         id="stop8510"
         offset="1"
         style="stop-color:#ff0000;stop-opacity:1" />
    </linearGradient>
    <radialGradient
       inkscape:collect="always"
       xlink:href="#linearGradient8514"
       id="radialGradient8516"
       cx="-115.47263"
       cy="26.55191"
       fx="-115.47263"
       fy="26.55191"
       r="56.017162"
       gradientTransform="matrix(1.4913172,0,0,1.2889213,293.26065,98.969066)"
       gradientUnits="userSpaceOnUse" />
  </defs>
  <sodipodi:namedview
     id="base"
     pagecolor="#ffffff"
     bordercolor="#666666"
     borderopacity="1.0"
     inkscape:pageopacity="0.0"
     inkscape:pageshadow="2"
     inkscape:zoom="0.9899495"
     inkscape:cx="391.18648"
     inkscape:cy="418.76185"
     inkscape:document-units="px"
     inkscape:current-layer="layer1"
     showgrid="false"
     inkscape:window-width="2860"
     inkscape:window-height="1871"
     inkscape:window-x="140"
     inkscape:window-y="55"
     inkscape:window-maximized="1"
     fit-margin-top="0"
     fit-margin-left="0"
     fit-margin-right="0"
     fit-margin-bottom="0"
     units="px" />
  <metadata
     id="metadata5">
    <rdf:RDF>
      <cc:Work
         rdf:about="">
        <dc:format>image/svg+xml</dc:format>
        <dc:type
           rdf:resource="http://purl.org/dc/dcmitype/StillImage" />
        <dc:title>Decentraland Flag</dc:title>
        <dc:rights>
          <cc:Agent>
            <dc:title>Public Domain</dc:title>
          </cc:Agent>
        </dc:rights>
        <dc:creator>
          <cc:Agent>
            <dc:title>This Version: Linzhi</dc:title>
          </cc:Agent>
        </dc:creator>
        <cc:license
           rdf:resource="http://creativecommons.org/publicdomain/zero/1.0/" />
      </cc:Work>
      <cc:License
         rdf:about="http://creativecommons.org/publicdomain/zero/1.0/">
        <cc:permits
           rdf:resource="http://creativecommons.org/ns#Reproduction" />
        <cc:permits
           rdf:resource="http://creativecommons.org/ns#Distribution" />
        <cc:permits
           rdf:resource="http://creativecommons.org/ns#DerivativeWorks" />
      </cc:License>
    </rdf:RDF>
  </metadata>
  <g
     inkscape:label="Layer 1"
     inkscape:groupmode="layer"
     id="layer1"
     transform="translate(67.886452,14.636243)">
    <ellipse
       style="opacity:1;vector-effect:none;fill:none;fill-opacity:1;stroke:none;stroke-width:0.49074066;stroke-linecap:butt;stroke-linejoin:miter;stroke-miterlimit:4;stroke-dasharray:none;stroke-dashoffset:0;stroke-opacity:1"
       id="path862"
       cx="25.709887"
       cy="-188.53828"
       rx="28.206173"
       ry="27.598192" />
    <rect
       style="opacity:1;vector-effect:none;fill:#000000;fill-opacity:1;stroke:none;stroke-width:0.31731009;stroke-linecap:butt;stroke-linejoin:miter;stroke-miterlimit:4;stroke-dasharray:none;stroke-dashoffset:0;stroke-opacity:1"
       id="rect8686"
       width="378.48578"
       height="304.0401"
       x="-67.886452"
       y="-14.636243" />
    <path
       style="opacity:1;fill:url(#radialGradient8516);fill-opacity:1;stroke:none;stroke-width:0.39519903;stroke-miterlimit:4;stroke-dasharray:none;stroke-opacity:1"
       d="m 79.193387,205.38434 -16.564664,-28.32742 17.161818,9.41925 c 1.261799,0.69254 2.298082,0.1904 3.224965,-1.28015 l 29.556754,-46.89316 -56.665963,-0.9806 c -1.587313,-0.0275 -2.661863,0.9559 -2.639876,2.07492 l 0.419503,21.35063 c 0,0 -12.000232,-19.41905 -16.737906,-28.49747 5.940423,-9.78808 16.067913,-27.84926 16.067913,-27.84926 l -0.07267,20.06409 c -0.0079,2.17429 1.694053,2.92349 2.880341,2.93514 l 56.289078,0.55297 -28.383158,-50.146772 c -0.541274,-0.93082 -1.28899,-1.50954 -2.068144,-1.02235 l -18.299566,10.87271 c 0,0 10.835583,-17.39826 15.428124,-27.32451 l 32.551834,-0.09749 -19.384711,10.751324 c -1.212873,0.847 -0.870795,1.5339 0.08262,2.9389 l 29.015651,50.039668 28.45154,-49.40394 c 0.91219,-1.58294 0.95128,-2.31512 -0.13228,-2.94762 l -18.44285,-11.0916 32.23258,-0.08849 15.47989,28.135984 c -0.12124,0.12125 -17.08833,-10.6965 -17.08833,-10.6965 -1.3769,-0.83684 -2.34661,-0.285722 -3.22987,1.239394 l -27.36951,49.026632 55.81546,0.42321 c 1.1499,0.0565 1.80564,-0.22522 1.81333,-1.87375 l 0.0995,-21.32879 15.90891,27.73297 -15.25903,26.88722 0.13034,-17.79005 c 0.19437,-1.92122 -1.0302,-2.87387 -2.19378,-2.87431 l -57.16852,-0.0218 c 9.09157,16.72804 26.96419,46.85072 26.96419,46.85072 0.98351,1.64315 2.12054,2.38727 4.88282,0.70931 l 16.91148,-9.26958 -15.22839,27.83648 -32.28257,-0.15818 14.49674,-9.92574 c 1.69997,-1.19515 2.59273,-3.1008 1.02921,-5.3644 l -25.04829,-43.6961 -28.742787,45.12979 c -0.864908,1.35802 -0.487613,3.04215 0.889528,3.87627 l 16.646519,10.08264 z"
       id="path127"
       inkscape:connector-curvature="0"
       sodipodi:nodetypes="ccsscsscccssccccccccccccccccccsccccscccccccccsscc" />
    <g
       aria-label="Decentralize Decentralize Decentralize"
       transform="matrix(3.6828661,0,0,3.6828661,25.786015,831.07096)"
       style="font-style:normal;font-variant:normal;font-weight:normal;font-stretch:normal;font-size:10.58333302px;line-height:1.25;font-family:Rachana;-inkscape-font-specification:Rachana;letter-spacing:0px;word-spacing:0px;fill:#ffff00;fill-opacity:1;stroke:#ffff00;stroke-width:0.26458332;stroke-opacity:1"
       id="text79">
      <path
         d="m 54.149355,-188.35062 0.194527,0.0268 q -0.0791,0.57334 0.08259,0.76258 0.161689,0.18924 0.714558,0.26552 l 4.545807,0.62716 q 0.583584,0.0805 0.769997,-0.0607 0.195239,-0.12956 0.275754,-0.71314 l 0.194528,0.0268 -0.381384,2.76434 q -0.261319,1.89408 -1.247764,2.84304 -1.046111,1.00332 -2.725193,0.77167 -1.300264,-0.17939 -2.082232,-1.09063 -1.033327,-1.20675 -0.742345,-3.31584 z m 5.731265,2.77302 -5.201059,-0.71757 q -0.255958,-0.0353 -0.354814,0.0763 -0.09886,0.11156 -0.149708,0.48014 -0.09181,0.66549 -0.05017,1.11986 0.08329,0.90875 0.586007,1.49976 0.654169,0.77885 2.005625,0.9653 0.706443,0.0975 1.309451,-0.0384 0.613247,-0.13449 1.14601,-0.59308 0.42508,-0.35868 0.642219,-0.79821 0.273629,-0.54651 0.399345,-1.45772 0.04379,-0.31739 -0.06495,-0.43672 -0.06319,-0.0713 -0.267959,-0.0996 z"
         style="font-style:normal;font-variant:normal;font-weight:bold;font-stretch:normal;font-family:Rekha;-inkscape-font-specification:'Rekha Bold';fill:#ffff00;fill-opacity:1;stroke:#ffff00;stroke-width:0.26458332;stroke-opacity:1"
         id="path823" />
      <path
         d="m 53.090831,-176.59392 -0.126006,0.12923 q -0.440972,-0.3539 -0.718374,-0.87812 -0.463132,-0.88135 -0.124234,-1.7808 0.309745,-0.82209 1.066214,-1.10034 0.756469,-0.27824 1.781654,0.10803 1.208944,0.4555 1.594565,1.39601 0.310908,0.75773 0.04125,1.47342 -0.273305,0.72537 -0.839849,0.99787 -0.623451,0.30628 -1.571401,0.0375 l 1.133304,-3.00785 q -1.160586,-0.43729 -1.889301,-0.11545 -0.568927,0.24951 -0.798504,0.85882 -0.211355,0.56095 -0.0042,1.12497 0.121672,0.32196 0.454859,0.75675 z m 2.535679,-2.47947 -0.750678,1.99234 q 0.532074,0.11212 0.801892,0.0702 0.470676,-0.0767 0.660167,-0.57961 0.163983,-0.43522 0.01091,-0.7911 -0.147043,-0.34256 -0.722293,-0.69184 z"
         style="font-style:normal;font-variant:normal;font-weight:bold;font-stretch:normal;font-family:Rekha;-inkscape-font-specification:'Rekha Bold';fill:#ffff00;fill-opacity:1;stroke:#ffff00;stroke-width:0.26458332;stroke-opacity:1"
         id="path825" />
      <path
         d="m 50.683582,-172.4692 -0.153325,0.078 q -0.540867,-0.79503 -0.615427,-1.42523 -0.07085,-0.61605 0.257743,-1.17818 0.365109,-0.62458 1.105525,-0.82626 0.895939,-0.24245 1.859582,0.32086 1.035024,0.60504 1.28036,1.59844 0.219389,0.89443 -0.244821,1.68854 -0.140828,0.24091 -0.37239,0.45273 -0.222641,0.21703 -0.466013,0.32616 -0.234449,0.11436 -0.470276,0.10819 -0.226904,-9.5e-4 -0.369666,-0.0844 -0.169529,-0.0991 -0.222933,-0.27397 -0.0497,-0.16074 0.07027,-0.36596 0.0991,-0.16953 0.282901,-0.21772 0.178584,-0.0393 0.383115,0.0204 l 0.227593,0.0612 q 0.277422,0.0784 0.395745,0.0398 0.189016,-0.0571 0.376786,-0.37832 0.224281,-0.38368 0.112389,-0.86809 -0.162278,-0.70541 -1.027772,-1.21135 -0.758423,-0.44335 -1.460819,-0.32719 -0.702395,0.11615 -1.041425,0.69612 -0.255576,0.43721 -0.198729,0.91339 0.04284,0.33631 0.29159,0.85284 z"
         style="font-style:normal;font-variant:normal;font-weight:bold;font-stretch:normal;font-family:Rekha;-inkscape-font-specification:'Rekha Bold';fill:#ffff00;fill-opacity:1;stroke:#ffff00;stroke-width:0.26458332;stroke-opacity:1"
         id="path827" />
      <path
         d="m 47.645814,-168.54046 -0.161463,0.0807 q -0.300261,-0.47911 -0.390089,-1.06536 -0.147948,-0.98457 0.467583,-1.72281 0.562581,-0.67473 1.368473,-0.68907 0.805892,-0.0143 1.647323,0.68723 0.992253,0.82732 1.047561,1.84231 0.04477,0.81781 -0.445002,1.40522 -0.496396,0.59535 -1.121011,0.66664 -0.689461,0.0845 -1.496522,-0.48075 l 2.058386,-2.46873 q -0.952563,-0.79423 -1.746559,-0.7296 -0.619316,0.0488 -1.036289,0.54889 -0.383879,0.46041 -0.373452,1.06119 0.0092,0.34406 0.181061,0.86416 z m 3.2094,-1.50903 -1.363433,1.63524 q 0.465726,0.28066 0.734343,0.32969 0.469749,0.0822 0.813916,-0.33061 0.297837,-0.35721 0.270151,-0.74362 -0.02637,-0.37185 -0.454977,-0.8907 z"
         style="font-style:normal;font-variant:normal;font-weight:bold;font-stretch:normal;font-family:Rekha;-inkscape-font-specification:'Rekha Bold';fill:#ffff00;fill-opacity:1;stroke:#ffff00;stroke-width:0.26458332;stroke-opacity:1"
         id="path829" />
      <path
         d="m 46.083062,-168.07036 1.654837,1.95736 q 0.280255,0.33148 0.453818,0.36069 0.115303,0.0243 0.249477,-0.0891 0.165744,-0.14013 0.202194,-0.22508 l 0.113436,0.13417 q -0.443923,0.65953 -0.788903,1.276 l -0.06859,0.0309 -0.527146,-0.62352 q -0.07735,0.66089 -0.15757,0.91819 -0.13066,0.42175 -0.454255,0.69533 -0.355166,0.30027 -0.77878,0.27946 -0.591725,-0.0275 -1.145562,-0.68264 l -1.528055,-1.8074 q -0.240218,-0.28413 -0.442913,-0.31577 -0.202694,-0.0316 -0.478935,0.2019 l -0.100091,-0.11839 1.641657,-1.38793 0.100091,0.11839 q -0.252563,0.21353 -0.268421,0.40288 -0.01528,0.27007 0.331698,0.68048 l 1.3946,1.64955 q 0.320292,0.37884 0.614611,0.45483 0.300992,0.0839 0.640373,-0.20305 0.181529,-0.15347 0.26964,-0.41744 0.08811,-0.26397 0.13138,-0.69304 l -1.875038,-2.21781 q -0.173491,-0.20521 -0.370732,-0.2144 -0.205135,-0.003 -0.49716,0.24438 l -0.100091,-0.11839 1.673227,-1.41462 0.100091,0.11839 q -0.276241,0.23355 -0.278753,0.43868 -0.0037,0.2197 0.289868,0.56698 z"
         style="font-style:normal;font-variant:normal;font-weight:bold;font-stretch:normal;font-family:Rekha;-inkscape-font-specification:'Rekha Bold';fill:#ffff00;fill-opacity:1;stroke:#ffff00;stroke-width:0.26458332;stroke-opacity:1"
         id="path831" />
      <path
         d="m 42.349031,-160.6997 -0.175558,-0.28029 0.884657,-0.5541 -1.569049,-2.50507 q -0.208475,-0.33284 -0.35978,-0.45759 -0.291639,-0.23197 -0.580685,-0.0509 -0.192698,0.1207 -0.267008,0.31359 -0.04043,0.11069 -0.07527,0.32764 l -0.174215,-0.025 q -0.02338,-0.3878 0.144968,-0.76154 0.165078,-0.3595 0.462883,-0.54603 0.367878,-0.23042 0.711976,-0.12887 0.406564,0.1234 0.790597,0.73653 l 1.651343,2.63646 0.464226,-0.29077 0.07344,0.0394 q 0.03292,0.0525 -0.06546,0.2849 -0.06449,0.15015 -0.100492,0.30685 -0.06979,0.3364 -0.108873,0.70235 -0.02821,0.28596 -0.05401,0.78993 -0.06131,0.0384 -0.132633,-0.0755 l -0.636398,-1.01604 z"
         style="font-style:normal;font-variant:normal;font-weight:bold;font-stretch:normal;font-family:Rekha;-inkscape-font-specification:'Rekha Bold';fill:#ffff00;fill-opacity:1;stroke:#ffff00;stroke-width:0.26458332;stroke-opacity:1"
         id="path833" />
      <path
         d="m 39.351787,-163.3767 1.119146,2.32887 q 0.174587,0.36331 0.335253,0.43517 0.101021,0.0432 0.259384,-0.0329 0.09315,-0.0448 0.144571,-0.0809 0.05589,-0.0269 0.154249,-0.10852 l 0.07163,0.14904 q -0.619533,0.59586 -1.136957,1.16558 l -0.05553,0.004 -0.398416,-0.82908 q -0.102575,0.64556 -0.269038,0.94342 -0.171302,0.31166 -0.450767,0.44595 -0.503036,0.24174 -0.744772,-0.2613 -0.08506,-0.17699 -0.04078,-0.34733 0.03944,-0.15656 0.197799,-0.23266 0.176994,-0.085 0.439406,-0.0162 0.257573,0.0826 0.360043,0.0334 0.167679,-0.0806 0.270745,-0.46264 0.103067,-0.38207 -0.0044,-0.60564 l -1.007232,-2.09598 q -0.210399,-0.43783 -0.496281,-0.48392 -0.221397,-0.0312 -0.631279,0.16577 l -0.06715,-0.13974 2.235718,-1.07438 0.06715,0.13974 q -0.383384,0.27597 -0.445565,0.40905 -0.08601,0.17893 0.09305,0.55155 z"
         style="font-style:normal;font-variant:normal;font-weight:bold;font-stretch:normal;font-family:Rekha;-inkscape-font-specification:'Rekha Bold';fill:#ffff00;fill-opacity:1;stroke:#ffff00;stroke-width:0.26458332;stroke-opacity:1"
         id="path835" />
      <path
         d="m 34.13612,-160.85795 0.451948,1.42884 q 0.872698,-0.63376 1.113128,-1.17592 0.159079,-0.35384 0.04687,-0.70859 -0.112207,-0.35475 -0.368007,-0.51232 -0.255799,-0.15756 -0.531714,-0.0703 -0.147811,0.0468 -0.306483,0.16198 -0.158673,0.11523 -0.248367,0.20864 -0.185621,0.16711 -0.21046,0.29421 -0.02172,0.13695 0.05308,0.37345 z m -1.705047,-0.0786 -0.08104,-0.25621 q 0.16632,-0.39948 0.398095,-0.59203 0.145701,-0.12197 0.323075,-0.17807 0.246352,-0.0779 0.412361,-0.0329 0.309194,0.0865 0.455688,0.54963 0.261744,-0.44051 0.487788,-0.68545 0.339067,-0.36741 0.713523,-0.48585 0.423726,-0.13403 0.826329,0.0421 0.39275,0.17929 0.542361,0.65229 0.211948,0.67007 -0.281571,1.30313 -0.340074,0.43277 -1.56481,1.4272 l 0.19013,0.6011 q 0.146494,0.46314 0.478009,0.58592 0.243835,0.0855 0.539458,-0.008 0.266061,-0.0842 0.439214,-0.29069 0.176271,-0.19667 0.107699,-0.41346 -0.03117,-0.0985 -0.07531,-0.20382 -0.05088,-0.0923 -0.09552,-0.16491 -0.05299,-0.16752 0.0346,-0.33614 0.08758,-0.16862 0.274812,-0.22784 0.206936,-0.0655 0.358967,0.0382 0.155148,0.11353 0.201902,0.26134 0.115324,0.3646 -0.156274,0.80823 -0.33535,0.55051 -1.103969,0.79363 -0.955848,0.30234 -1.458695,-0.15649 -0.290085,-0.26597 -0.508267,-0.95575 l -0.607793,-1.92155 q -0.09662,-0.30548 -0.179676,-0.43097 -0.08979,-0.11252 -0.286872,-0.0502 -0.137957,0.0436 -0.220914,0.12408 -0.08296,0.0804 -0.163299,0.20341 z"
         style="font-style:normal;font-variant:normal;font-weight:bold;font-stretch:normal;font-family:Rekha;-inkscape-font-specification:'Rekha Bold';fill:#ffff00;fill-opacity:1;stroke:#ffff00;stroke-width:0.26458332;stroke-opacity:1"
         id="path837" />
      <path
         d="m 31.973077,-161.59633 0.02707,0.15265 q -0.447765,0.0794 -0.583517,0.26093 -0.144123,0.19351 -0.07013,0.61074 l 0.860895,4.85419 q 0.06497,0.36635 0.168043,0.47403 0.104874,0.11785 0.399992,0.0655 l 0.342391,-0.0817 0.02888,0.16282 q -0.739121,0.33052 -0.962352,0.43309 -0.05745,0.0312 -0.576297,0.30164 l -0.04432,-0.0131 -1.077472,-6.07536 q -0.07761,-0.43759 -0.253717,-0.54281 -0.176109,-0.10522 -0.634051,-0.024 l -0.02707,-0.15265 z"
         style="font-style:normal;font-variant:normal;font-weight:bold;font-stretch:normal;font-family:Rekha;-inkscape-font-specification:'Rekha Bold';fill:#ffff00;fill-opacity:1;stroke:#ffff00;stroke-width:0.26458332;stroke-opacity:1"
         id="path839" />
      <path
         d="m 29.190313,-161.12011 0.01175,0.15458 q -0.504973,0.0384 -0.647808,0.20471 -0.142836,0.16633 -0.09819,0.75375 l 0.181705,2.39089 q 0.03055,0.40192 0.154089,0.52727 0.0784,0.077 0.253599,0.0636 0.103056,-0.008 0.164106,-0.0228 0.05153,-0.004 0.244984,-0.0497 l 0.01175,0.15458 q -0.472614,0.1914 -0.773165,0.32826 -0.520226,0.24683 -0.781121,0.35995 l -0.04357,-0.0278 -0.27804,-3.65847 q -0.04151,-0.5462 -0.178492,-0.71199 -0.147287,-0.16502 -0.65226,-0.12664 l -0.01175,-0.15458 z m -0.143956,6.56167 q 0.0141,0.1855 -0.0883,0.3384 -0.139702,0.20755 -0.387036,0.22635 -0.226722,0.0172 -0.393054,-0.12561 -0.166332,-0.14283 -0.182779,-0.35925 -0.01723,-0.22672 0.125605,-0.39305 0.133313,-0.15525 0.370341,-0.17326 0.247333,-0.0188 0.39462,0.14622 0.147287,0.16501 0.160602,0.3402 z"
         style="font-style:normal;font-variant:normal;font-weight:bold;font-stretch:normal;font-family:Rekha;-inkscape-font-specification:'Rekha Bold';fill:#ffff00;fill-opacity:1;stroke:#ffff00;stroke-width:0.26458332;stroke-opacity:1"
         id="path841" />
      <path
         d="m 22.098699,-159.69105 0.216943,-1.38587 3.891148,0.20231 -0.0081,0.15482 -2.962812,4.0374 1.424345,0.074 q 0.516068,0.0268 0.703873,-0.20143 0.110726,-0.13913 0.210344,-0.66177 l 0.185784,0.01 -0.09429,1.21631 -3.581507,-0.18621 0.008,-0.15482 2.993777,-4.03579 -1.424346,-0.0741 q -0.763779,-0.0397 -1.024907,0.20545 -0.174265,0.16688 -0.354718,0.85089 z"
         style="font-style:normal;font-variant:normal;font-weight:bold;font-stretch:normal;font-family:Rekha;-inkscape-font-specification:'Rekha Bold';fill:#ffff00;fill-opacity:1;stroke:#ffff00;stroke-width:0.26458332;stroke-opacity:1"
         id="path843" />
      <path
         d="m 17.414307,-160.32423 -0.146532,-0.10539 q 0.284423,-0.48869 0.761575,-0.84093 0.802712,-0.58901 1.742552,-0.38758 0.858993,0.18409 1.246604,0.89079 0.387611,0.7067 0.158031,1.77792 -0.270731,1.26323 -1.143461,1.78437 -0.703092,0.4201 -1.450922,0.25982 -0.757935,-0.16243 -1.111625,-0.68218 -0.395555,-0.57099 -0.270646,-1.54837 l 3.142905,0.67358 q 0.259902,-1.21269 -0.16669,-1.88547 -0.331312,-0.52551 -0.967978,-0.66196 -0.586136,-0.12562 -1.113094,0.1631 -0.300293,0.16818 -0.680719,0.5623 z m 2.828856,2.13892 -2.081795,-0.44617 q -0.03178,0.54283 0.04978,0.80342 0.1458,0.45405 0.671301,0.56667 0.454762,0.0975 0.78393,-0.10681 0.316897,-0.19633 0.576781,-0.81711 z"
         style="font-style:normal;font-variant:normal;font-weight:bold;font-stretch:normal;font-family:Rekha;-inkscape-font-specification:'Rekha Bold';fill:#ffff00;fill-opacity:1;stroke:#ffff00;stroke-width:0.26458332;stroke-opacity:1"
         id="path845" />
      <path
         d="m 12.280706,-164.00959 -0.112346,0.16106 q -0.474698,-0.33112 -0.716758,-0.27315 -0.242061,0.058 -0.56136,0.51572 l -2.6253479,3.76368 q -0.3370379,0.48317 -0.2960171,0.71341 0.026631,0.23279 0.5098057,0.56983 l -0.112346,0.16106 -2.2887214,-1.59649 q -1.568198,-1.0939 -1.9649181,-2.40394 -0.4180159,-1.3879 0.5517071,-2.77809 0.750944,-1.07654 1.9180796,-1.35872 1.5446168,-0.37171 3.2908264,0.84636 z m -5.0755672,3.84392 3.0037762,-4.30619 q 0.147823,-0.21192 0.09341,-0.35069 -0.05442,-0.13877 -0.3595802,-0.35163 -0.5509885,-0.38434 -0.9746181,-0.55383 -0.847259,-0.33898 -1.6022212,-0.15993 -0.9911102,0.22855 -1.771619,1.34748 -0.4079932,0.58489 -0.5611064,1.18376 -0.1590262,0.60735 0.00721,1.29036 0.1262039,0.54168 0.4189633,0.93492 0.3623518,0.49218 1.1167822,1.01843 0.2627791,0.1833 0.4185019,0.14071 0.092251,-0.0239 0.21051,-0.19339 z"
         style="font-style:normal;font-variant:normal;font-weight:bold;font-stretch:normal;font-family:Rekha;-inkscape-font-specification:'Rekha Bold';fill:#ffff00;fill-opacity:1;stroke:#ffff00;stroke-width:0.26458332;stroke-opacity:1"
         id="path847" />
      <path
         d="m 2.2680505,-170.25286 -0.059406,-0.17044 q 0.5135245,-0.23665 1.1064402,-0.2509 0.9954041,-0.021 1.6490228,0.68369 0.5973935,0.64411 0.5087391,1.44524 -0.088654,0.80113 -0.8919016,1.54611 -0.9472256,0.87852 -1.960966,0.80381 -0.8168346,-0.06 -1.3369184,-0.62075 -0.52711189,-0.56834 -0.51808308,-1.19694 0.004199,-0.69461 0.66786538,-1.42291 l 2.1857574,2.3567 q 0.9093366,-0.84338 0.9465953,-1.63913 0.030663,-0.62048 -0.4121111,-1.09788 -0.4076332,-0.43951 -1.0048288,-0.50587 -0.3424157,-0.0348 -0.8802053,0.0693 z m 1.0869757,3.37578 -1.4478007,-1.56103 q -0.3378206,0.42609 -0.420744,0.68625 -0.1414646,0.45541 0.2239997,0.84946 0.3162671,0.341 0.7030503,0.36287 0.3721773,0.0213 0.9414947,-0.33755 z"
         style="font-style:normal;font-variant:normal;font-weight:bold;font-stretch:normal;font-family:Rekha;-inkscape-font-specification:'Rekha Bold';fill:#ffff00;fill-opacity:1;stroke:#ffff00;stroke-width:0.26458332;stroke-opacity:1"
         id="path849" />
      <path
         d="m -0.35936446,-174.23346 -0.001938,-0.17201 q 0.95240482,-0.13245 1.55036288,0.08 0.5836412,0.20954 0.9418879,0.75325 0.3980518,0.60413 0.2506574,1.35723 -0.1797768,0.91059 -1.111851,1.52472 -1.00111679,0.65963 -2.00034696,0.43924 -0.89901274,-0.19978 -1.40510724,-0.96787 -0.1535343,-0.23302 -0.2407686,-0.53448 -0.095865,-0.29577 -0.085826,-0.5623 0.00141,-0.26085 0.1114642,-0.46951 0.101425,-0.20298 0.2395101,-0.29396 0.163976,-0.10805 0.3444076,-0.0784 0.1661148,0.0267 0.2969033,0.2252 0.1080426,0.16397 0.069772,0.35009 -0.043957,0.17749 -0.1881307,0.33437 l -0.1557482,0.17688 q -0.1932134,0.21395 -0.2110779,0.33711 -0.032584,0.19475 0.1721287,0.50544 0.2445175,0.37111 0.7283439,0.48552 0.70426442,0.16719 1.54140516,-0.38439 0.73357694,-0.48335 0.94077974,-1.16447 0.2072028,-0.68111 -0.1624168,-1.24208 -0.27863631,-0.42289 -0.73068401,-0.58299 -0.32045417,-0.11066 -0.89372885,-0.11662 z"
         style="font-style:normal;font-variant:normal;font-weight:bold;font-stretch:normal;font-family:Rekha;-inkscape-font-specification:'Rekha Bold';fill:#ffff00;fill-opacity:1;stroke:#ffff00;stroke-width:0.26458332;stroke-opacity:1"
         id="path851" />
      <path
         d="m -2.5316072,-178.70256 -4.225e-4,-0.1805 q 0.5626698,-0.0558 1.1276676,0.1246 0.94759257,0.30552 1.33491248,1.18521 0.35400206,0.80402 0.0083208,1.53214 -0.34568126,0.72813 -1.34833798,1.1696 -1.1823782,0.52059 -2.1159934,0.11857 -0.7523418,-0.32372 -1.0605318,-1.02369 -0.3123548,-0.70943 -0.098324,-1.30054 0.2310434,-0.65507 1.0963329,-1.1264 l 1.2952311,2.94176 q 1.1350831,-0.49977 1.43043406,-1.23961 0.23181942,-0.57637 -0.0305586,-1.17229 -0.24155438,-0.54862 -0.78424548,-0.80656 -0.3122168,-0.14485 -0.8544854,-0.22229 z m -0.076328,3.54565 -0.8579344,-1.94856 q -0.4585515,0.29223 -0.6219676,0.51099 -0.2825722,0.38415 -0.066006,0.87602 0.1874128,0.42565 0.5457952,0.57276 0.3447586,0.14182 1.000113,-0.0112 z"
         style="font-style:normal;font-variant:normal;font-weight:bold;font-stretch:normal;font-family:Rekha;-inkscape-font-specification:'Rekha Bold';fill:#ffff00;fill-opacity:1;stroke:#ffff00;stroke-width:0.26458332;stroke-opacity:1"
         id="path853" />
      <path
         d="m -2.2565905,-180.31874 -2.4932525,0.59451 q -0.4222444,0.10068 -0.5265699,0.24243 -0.073701,0.0919 -0.032948,0.26286 0.050341,0.21112 0.1097323,0.28196 l -0.1709084,0.0408 q -0.3885145,-0.69361 -0.7832174,-1.2795 l 0.00333,-0.0752 0.7942215,-0.18938 q -0.5550193,-0.36703 -0.7485057,-0.55465 -0.317528,-0.30678 -0.4158129,-0.71898 -0.1078737,-0.4524 0.1017067,-0.82112 0.291402,-0.51574 1.1258373,-0.71471 l 2.3022371,-0.54895 q 0.3619238,-0.0863 0.4815618,-0.25296 0.1196381,-0.16665 0.035736,-0.51852 l 0.1508016,-0.036 0.4986162,2.09112 -0.1508016,0.036 q -0.07671,-0.32171 -0.2385684,-0.42124 -0.2341647,-0.13542 -0.7569435,-0.0108 l -2.1011684,0.50102 q -0.482565,0.11506 -0.6830952,0.3435 -0.2105837,0.23084 -0.1075044,0.66314 0.055136,0.23123 0.251019,0.4289 0.1958836,0.19767 0.5593491,0.42975 l 2.8250159,-0.67361 q 0.2613894,-0.0623 0.3585234,-0.23424 0.094737,-0.18196 0.00604,-0.55394 l 0.1508016,-0.036 0.5082049,2.13133 -0.1508015,0.036 q -0.083902,-0.35187 -0.2658669,-0.44661 -0.1944157,-0.10239 -0.6367669,0.003 z"
         style="font-style:normal;font-variant:normal;font-weight:bold;font-stretch:normal;font-family:Rekha;-inkscape-font-specification:'Rekha Bold';fill:#ffff00;fill-opacity:1;stroke:#ffff00;stroke-width:0.26458332;stroke-opacity:1"
         id="path855" />
      <path
         d="m -7.133335,-187.00764 0.3295278,-0.0282 0.088892,1.04007 2.9451548,-0.25171 q 0.3913143,-0.0334 0.571393,-0.11107 0.3395619,-0.1535 0.3105181,-0.49332 -0.019363,-0.22655 -0.1570173,-0.38076 -0.080005,-0.0865 -0.2570907,-0.2166 l 0.1018336,-0.14355 q 0.3556677,0.15631 0.6112619,0.47677 0.2444163,0.31105 0.2743402,0.66117 0.036965,0.43251 -0.2105339,0.69224 -0.2954669,0.30532 -1.016309,0.36693 l -3.0996211,0.26492 0.046646,0.54578 -0.068564,0.0473 q -0.061787,0.005 -0.2235572,-0.18836 -0.1041212,-0.12594 -0.2270777,-0.22954 -0.2673885,-0.21572 -0.5750878,-0.41763 -0.2415124,-0.1557 -0.6780654,-0.40883 -0.00616,-0.0721 0.1277099,-0.0835 l 1.1945383,-0.10209 z"
         style="font-style:normal;font-variant:normal;font-weight:bold;font-stretch:normal;font-family:Rekha;-inkscape-font-specification:'Rekha Bold';fill:#ffff00;fill-opacity:1;stroke:#ffff00;stroke-width:0.26458332;stroke-opacity:1"
         id="path857" />
      <path
         d="m -3.380013,-188.45576 -2.5826341,-0.0783 q -0.4028909,-0.0122 -0.5406342,0.0973 -0.084837,0.0698 -0.090164,0.24543 -0.00313,0.1033 0.00532,0.1656 -0.00188,0.062 0.025352,0.18689 l -0.1652886,-0.005 q -0.2438426,-0.82426 -0.5114794,-1.54584 l 0.022228,-0.051 0.9194178,0.0279 q -0.5259088,-0.3882 -0.7137297,-0.67307 -0.1978381,-0.29552 -0.1884389,-0.60544 0.016919,-0.55785 0.5747676,-0.54093 0.1962802,0.006 0.3271308,0.12366 0.1208334,0.10707 0.1155071,0.28269 -0.00595,0.19628 -0.1878381,0.39756 -0.1919025,0.19064 -0.1953489,0.30428 -0.00564,0.18595 0.2861133,0.4533 0.2917528,0.26735 0.5396857,0.27486 l 2.3243707,0.0705 q 0.4855352,0.0147 0.6580298,-0.21787 0.129606,-0.18219 0.1433916,-0.63673 l 0.154958,0.005 -0.075194,2.47933 -0.1549581,-0.005 q -0.068545,-0.46738 -0.1580738,-0.58384 -0.1192669,-0.15871 -0.5324883,-0.17125 z"
         style="font-style:normal;font-variant:normal;font-weight:bold;font-stretch:normal;font-family:Rekha;-inkscape-font-specification:'Rekha Bold';fill:#ffff00;fill-opacity:1;stroke:#ffff00;stroke-width:0.26458332;stroke-opacity:1"
         id="path859" />
      <path
         d="m -3.1983072,-194.25122 -1.4748294,-0.26595 q 0.1540708,1.06748 0.5217367,1.53285 0.2389411,0.30564 0.6051056,0.37167 0.3661646,0.066 0.6247805,-0.0869 0.2586159,-0.15291 0.3099718,-0.4377 0.027512,-0.15257 -5.007e-4,-0.34666 -0.028013,-0.19408 -0.068865,-0.31697 -0.061361,-0.24211 -0.16224,-0.32331 -0.11105,-0.083 -0.3551597,-0.12706 z m 0.8640524,-1.472 0.2644521,0.0477 q 0.2759578,0.33332 0.3383196,0.62812 0.040018,0.18575 0.007,0.36883 -0.045853,0.25428 -0.1630726,0.38017 -0.2205987,0.23327 -0.6986468,0.14707 0.2677876,0.43686 0.3791714,0.751 0.1670758,0.47121 0.097378,0.85772 -0.078868,0.43736 -0.4223552,0.71149 -0.341653,0.26395 -0.8298724,0.17591 -0.6916441,-0.12472 -1.0217936,-0.85638 -0.2244349,-0.50256 -0.5335761,-2.04959 l -0.6204455,-0.11188 q -0.4780481,-0.0862 -0.7411659,0.1499 -0.1892514,0.17591 -0.2442756,0.48105 -0.049522,0.27462 0.052524,0.52407 0.091875,0.24761 0.3156422,0.28796 0.1017124,0.0183 0.2154301,0.0283 0.1053807,-0.002 0.1904188,-0.008 0.1729111,0.0312 0.2812933,0.18726 0.1083823,0.15607 0.073534,0.34932 -0.038517,0.21359 -0.2010899,0.2998 -0.1727441,0.0844 -0.3253126,0.0569 -0.3763358,-0.0679 -0.6422893,-0.5149 -0.3308161,-0.55325 -0.187753,-1.3466 0.1779116,-0.98661 0.8181988,-1.21772 0.3704995,-0.13272 1.0824861,-0.004 l 1.9833913,0.35765 q 0.3153083,0.0569 0.4650422,0.0419 0.1413968,-0.027 0.1780796,-0.23044 0.025678,-0.1424 -0.00684,-0.25328 -0.032515,-0.11089 -0.1038803,-0.23928 z"
         style="font-style:normal;font-variant:normal;font-weight:bold;font-stretch:normal;font-family:Rekha;-inkscape-font-specification:'Rekha Bold';fill:#ffff00;fill-opacity:1;stroke:#ffff00;stroke-width:0.26458332;stroke-opacity:1"
         id="path861" />
      <path
         d="m -1.5326974,-195.82016 -0.1473107,-0.0483 q 0.1417028,-0.43212 0.04592,-0.63756 -0.1023827,-0.21848 -0.5050319,-0.35052 l -4.6844803,-1.53618 q -0.3535456,-0.11594 -0.4971583,-0.076 -0.1534334,0.0367 -0.2468284,0.3215 l -0.089856,0.34034 -0.1571314,-0.0515 q 0.058166,-0.80756 0.073313,-1.05276 -3.184e-4,-0.0654 0.00664,-0.65043 l 0.032523,-0.0328 5.8629659,1.92264 q 0.4222906,0.13849 0.5982677,0.033 0.175977,-0.10544 0.32090026,-0.54737 l 0.1473107,0.0483 z"
         style="font-style:normal;font-variant:normal;font-weight:bold;font-stretch:normal;font-family:Rekha;-inkscape-font-specification:'Rekha Bold';fill:#ffff00;fill-opacity:1;stroke:#ffff00;stroke-width:0.26458332;stroke-opacity:1"
         id="path863" />
      <path
         d="m -0.63590085,-198.49729 -0.14135749,-0.0637 q 0.20794432,-0.46177 0.13024326,-0.66678 -0.0777011,-0.20502 -0.61485952,-0.44691 l -2.1863293,-0.98455 q -0.3675294,-0.16551 -0.5367206,-0.11702 -0.105097,0.032 -0.177241,0.19223 -0.042438,0.0942 -0.058476,0.15502 -0.021219,0.0471 -0.073579,0.2389 l -0.1413575,-0.0637 q 0.058099,-0.50658 0.08175,-0.83597 0.032199,-0.57492 0.057722,-0.85813 l 0.045247,-0.025 3.34546066,1.50654 q 0.49946314,0.22492 0.71059344,0.18398 0.21537406,-0.0504 0.42331839,-0.51214 l 0.14135749,0.0637 z M -6.32865,-201.76363 q -0.169629,-0.0764 -0.2548813,-0.23946 -0.1153964,-0.22199 -0.013546,-0.44816 0.093363,-0.20733 0.2983767,-0.28503 0.2050139,-0.0777 0.4029144,0.0114 0.2073243,0.0934 0.2850254,0.29838 0.072521,0.19134 -0.025086,0.40809 -0.1018503,0.22617 -0.3172244,0.27654 -0.215374,0.0504 -0.3755792,-0.0218 z"
         style="font-style:normal;font-variant:normal;font-weight:bold;font-stretch:normal;font-family:Rekha;-inkscape-font-specification:'Rekha Bold';fill:#ffff00;fill-opacity:1;stroke:#ffff00;stroke-width:0.26458332;stroke-opacity:1"
         id="path865" />
      <path
         d="m 1.5389115,-205.40046 1.1056,0.86333 -2.06851035,3.30201 -0.13137941,-0.0823 -2.08776464,-4.55193 -0.7571735,1.20869 q -0.2743382,0.43793 -0.1661648,0.71302 0.067753,0.1644 0.4760358,0.50554 l -0.098762,0.15765 -1.0170577,-0.67371 1.9039074,-3.03924 0.1313794,0.0823 2.07130427,4.57821 0.75717353,-1.20869 q 0.4060206,-0.64814 0.3187373,-0.99552 -0.061108,-0.23341 -0.5711218,-0.72364 z"
         style="font-style:normal;font-variant:normal;font-weight:bold;font-stretch:normal;font-family:Rekha;-inkscape-font-specification:'Rekha Bold';fill:#ffff00;fill-opacity:1;stroke:#ffff00;stroke-width:0.26458332;stroke-opacity:1"
         id="path867" />
      <path
         d="m 4.3998197,-209.17506 0.1638234,-0.0758 q 0.2856755,0.48795 0.3577829,1.07664 0.1181874,0.98859 -0.5193262,1.70792 -0.5826738,0.65746 -1.3886319,0.6475 -0.8059582,-0.01 -1.6258482,-0.7366 -0.96685153,-0.85688 -0.99152498,-1.87307 -0.0200907,-0.81878 0.48717823,-1.39116 0.51412395,-0.58011 1.14060535,-0.63253 0.6916956,-0.0637 1.4813427,0.52567 l -2.1319005,2.40552 q 0.9281774,0.8226 1.7237613,0.78194 0.6205063,-0.0301 1.0523704,-0.51739 0.3975891,-0.44862 0.4052856,-1.04944 0.00121,-0.34418 -0.1549181,-0.86923 z m -3.2534482,1.41156 1.412127,-1.59337 q -0.4570501,-0.29458 -0.7240656,-0.3517 -0.4670572,-0.0963 -0.8235164,0.30592 -0.30847434,0.34806 -0.29245384,0.73513 0.0151407,0.37248 0.42790884,0.90402 z"
         style="font-style:normal;font-variant:normal;font-weight:bold;font-stretch:normal;font-family:Rekha;-inkscape-font-specification:'Rekha Bold';fill:#ffff00;fill-opacity:1;stroke:#ffff00;stroke-width:0.26458332;stroke-opacity:1"
         id="path869" />
      <path
         d="m 10.142878,-211.82202 -0.08458,-0.17722 q 0.522337,-0.24929 0.591446,-0.48841 0.06911,-0.23912 -0.17128,-0.74281 l -1.9765336,-4.14137 q -0.2537441,-0.53167 -0.4742094,-0.60968 -0.2155895,-0.0918 -0.747253,0.16195 l -0.084581,-0.17722 2.5184059,-1.20194 q 1.7255744,-0.82356 3.0606624,-0.52168 1.413311,0.3218 2.143382,1.8515 0.56536,1.18458 0.234441,2.33885 -0.439458,1.52672 -2.360908,2.44376 z m -0.8364562,-6.31169 2.2614392,4.73834 q 0.111291,0.23318 0.258833,0.25438 0.147543,0.0212 0.48333,-0.13906 0.606283,-0.28935 0.962846,-0.57405 0.713126,-0.56939 0.930205,-1.31431 0.29064,-0.97471 -0.296978,-2.20593 -0.307164,-0.64359 -0.752333,-1.07245 -0.44962,-0.43817 -1.125643,-0.63087 -0.533357,-0.15773 -1.019866,-0.0973 -0.606917,0.0721 -1.4370585,0.46827 -0.2891503,0.138 -0.3290048,0.29444 -0.024803,0.092 0.06423,0.27855 z"
         style="font-style:normal;font-variant:normal;font-weight:bold;font-stretch:normal;font-family:Rekha;-inkscape-font-specification:'Rekha Bold';fill:#ffff00;fill-opacity:1;stroke:#ffff00;stroke-width:0.26458332;stroke-opacity:1"
         id="path871" />
      <path
         d="m 20.510938,-217.45198 0.177609,0.0322 q -0.04671,0.56349 -0.326088,1.08666 -0.471535,0.87688 -1.406686,1.09906 -0.854707,0.20307 -1.508484,-0.26836 -0.653777,-0.47143 -0.907013,-1.5373 -0.298628,-1.25692 0.265295,-2.10264 0.454204,-0.68156 1.198303,-0.85834 0.754153,-0.17918 1.296929,0.13803 0.602609,0.34548 0.910009,1.28163 l -3.127223,0.74299 q 0.286682,1.20665 0.961069,1.63068 0.525054,0.33205 1.158543,0.18154 0.583213,-0.13856 0.934867,-0.62579 0.198826,-0.28094 0.37287,-0.80033 z m -3.473632,-0.71504 2.071409,-0.49214 q -0.204673,-0.50377 -0.39034,-0.70398 -0.326835,-0.34727 -0.849715,-0.22304 -0.452492,0.10751 -0.661873,0.43345 -0.201714,0.3135 -0.169481,0.98571 z"
         style="font-style:normal;font-variant:normal;font-weight:bold;font-stretch:normal;font-family:Rekha;-inkscape-font-specification:'Rekha Bold';fill:#ffff00;fill-opacity:1;stroke:#ffff00;stroke-width:0.26458332;stroke-opacity:1"
         id="path873" />
      <path
         d="m 25.258566,-217.79955 0.151148,0.0821 q -0.34839,0.89624 -0.825298,1.31488 -0.467363,0.40758 -1.116719,0.4555 -0.721508,0.0533 -1.30735,-0.4424 -0.70759,-0.60067 -0.789748,-1.71386 -0.08824,-1.19564 0.591082,-1.96085 0.612499,-0.68774 1.529845,-0.75544 0.278295,-0.0205 0.584052,0.0502 0.304996,0.0604 0.532859,0.19903 0.227103,0.12833 0.355697,0.32611 0.127833,0.18747 0.140005,0.35238 0.01445,0.19584 -0.09934,0.33896 -0.104251,0.13206 -0.341318,0.14956 -0.195838,0.0145 -0.339721,-0.10965 -0.133577,-0.12487 -0.200327,-0.32721 l -0.07858,-0.2222 q -0.09269,-0.27297 -0.191541,-0.34858 -0.154191,-0.12334 -0.525252,-0.096 -0.443212,0.0327 -0.778862,0.39948 -0.489155,0.53354 -0.415365,1.53335 0.06466,0.87611 0.558499,1.38893 0.493837,0.51281 1.163808,0.46336 0.505056,-0.0373 0.865124,-0.35402 0.252774,-0.22593 0.537306,-0.72364 z"
         style="font-style:normal;font-variant:normal;font-weight:bold;font-stretch:normal;font-family:Rekha;-inkscape-font-specification:'Rekha Bold';fill:#ffff00;fill-opacity:1;stroke:#ffff00;stroke-width:0.26458332;stroke-opacity:1"
         id="path875" />
      <path
         d="m 30.205263,-217.56308 0.158734,0.0859 q -0.220034,0.52086 -0.648569,0.93087 -0.72138,0.68621 -1.679194,0.60581 -0.875421,-0.0735 -1.349672,-0.7252 -0.474252,-0.65173 -0.382622,-1.74344 0.108054,-1.28738 0.907504,-1.91518 0.644025,-0.50601 1.406156,-0.44204 0.772431,0.0648 1.189284,0.53542 0.464891,0.51612 0.465163,1.50145 l -3.203012,-0.26884 q -0.103732,1.23589 0.404875,1.84902 0.39539,0.47916 1.044232,0.53362 0.597346,0.0501 1.083354,-0.30319 0.276494,-0.20497 0.603767,-0.64423 z m -3.077669,-1.7622 2.121609,0.17807 q -0.03744,-0.54246 -0.151448,-0.79058 -0.202302,-0.43184 -0.737854,-0.47679 -0.463458,-0.0389 -0.764008,0.20553 -0.289387,0.235 -0.468299,0.88377 z"
         style="font-style:normal;font-variant:normal;font-weight:bold;font-stretch:normal;font-family:Rekha;-inkscape-font-specification:'Rekha Bold';fill:#ffff00;fill-opacity:1;stroke:#ffff00;stroke-width:0.26458332;stroke-opacity:1"
         id="path877" />
      <path
         d="m 31.483967,-216.55981 0.643206,-2.48113 q 0.10893,-0.4202 0.0326,-0.57878 -0.04669,-0.1082 -0.216768,-0.15229 -0.210096,-0.0545 -0.300507,-0.0352 l 0.04409,-0.17007 q 0.794804,-0.0182 1.497342,-0.0923 l 0.06485,0.0382 -0.204892,0.79036 q 0.584332,-0.31831 0.840743,-0.40131 0.419817,-0.13674 0.830004,-0.0304 0.450206,0.11671 0.677723,0.47464 0.319043,0.49911 0.103777,1.32949 l -0.593928,2.29105 q -0.09337,0.36017 -0.0022,0.54395 0.09116,0.18379 0.441316,0.27456 l -0.0389,0.15007 -2.080952,-0.53946 0.0389,-0.15007 q 0.320146,0.083 0.483922,-0.0134 0.229361,-0.1434 0.364226,-0.66364 l 0.542056,-2.09096 q 0.124492,-0.48022 0.01666,-0.76442 -0.105239,-0.2942 -0.535436,-0.40573 -0.230105,-0.0597 -0.49652,0.0208 -0.266415,0.0804 -0.641766,0.29274 l -0.728793,2.81129 q -0.06743,0.26012 0.03891,0.42649 0.116353,0.16896 0.486522,0.26492 l -0.0389,0.15007 -2.12097,-0.54984 0.0389,-0.15007 q 0.35016,0.0908 0.519123,-0.0256 0.181561,-0.12377 0.295678,-0.56397 z"
         style="font-style:normal;font-variant:normal;font-weight:bold;font-stretch:normal;font-family:Rekha;-inkscape-font-specification:'Rekha Bold';fill:#ffff00;fill-opacity:1;stroke:#ffff00;stroke-width:0.26458332;stroke-opacity:1"
         id="path879" />
      <path
         d="m 39.655495,-217.76982 -0.127287,0.30525 -0.963457,-0.40174 -1.137623,2.7282 q -0.151153,0.36249 -0.165516,0.55806 -0.02077,0.37207 0.294021,0.50333 0.209862,0.0875 0.410221,0.0367 0.113697,-0.031 0.310889,-0.12792 l 0.08025,0.15664 q -0.302969,0.2432 -0.705272,0.32179 -0.388785,0.073 -0.713118,-0.0622 -0.400645,-0.16706 -0.516626,-0.50657 -0.134249,-0.40311 0.14419,-1.07086 l 1.197289,-2.87129 -0.505577,-0.21082 -0.01031,-0.0827 q 0.02387,-0.0572 0.270338,-0.11123 0.159809,-0.0342 0.308494,-0.0953 0.314866,-0.13746 0.636104,-0.31704 0.249676,-0.14224 0.675881,-0.41244 0.06677,0.0279 0.01506,0.15186 l -0.461414,1.10654 z"
         style="font-style:normal;font-variant:normal;font-weight:bold;font-stretch:normal;font-family:Rekha;-inkscape-font-specification:'Rekha Bold';fill:#ffff00;fill-opacity:1;stroke:#ffff00;stroke-width:0.26458332;stroke-opacity:1"
         id="path881" />
      <path
         d="m 39.203087,-213.77678 1.253702,-2.25929 q 0.195578,-0.35244 0.161362,-0.52509 -0.02314,-0.1074 -0.176773,-0.19265 -0.09037,-0.0502 -0.149609,-0.0712 -0.05422,-0.0301 -0.177713,-0.0632 l 0.08024,-0.14459 q 0.844319,0.1612 1.608296,0.25418 l 0.03516,0.0431 -0.446318,0.80431 q 0.586107,-0.2894 0.925391,-0.32571 0.353336,-0.0403 0.62445,0.11012 0.488005,0.2708 0.217206,0.75881 -0.09528,0.1717 -0.259883,0.23402 -0.150549,0.0583 -0.30418,-0.0269 -0.171706,-0.0953 -0.267197,-0.34921 -0.08144,-0.25795 -0.180847,-0.31311 -0.162669,-0.0903 -0.534026,0.0464 -0.371358,0.1367 -0.491714,0.35359 l -1.128332,2.03336 q -0.235696,0.42474 -0.108079,0.68468 0.102491,0.19871 0.500125,0.41936 l -0.07522,0.13556 -2.168912,-1.20355 0.07522,-0.13556 q 0.44679,0.15337 0.591331,0.1272 0.195735,-0.0332 0.396328,-0.39471 z"
         style="font-style:normal;font-variant:normal;font-weight:bold;font-stretch:normal;font-family:Rekha;-inkscape-font-specification:'Rekha Bold';fill:#ffff00;fill-opacity:1;stroke:#ffff00;stroke-width:0.26458332;stroke-opacity:1"
         id="path883" />
      <path
         d="m 44.273037,-210.97517 0.90535,-1.19424 q -1.021418,-0.34634 -1.602872,-0.22945 -0.380729,0.0745 -0.605505,0.37101 -0.224777,0.2965 -0.205655,0.59633 0.01912,0.29982 0.249732,0.47465 0.123542,0.0937 0.309254,0.15663 0.185712,0.063 0.313772,0.0822 0.243632,0.055 0.36173,0.002 0.124342,-0.0614 0.274194,-0.25903 z m 0.920697,1.43724 -0.162339,0.21414 q -0.422176,0.095 -0.713232,0.017 -0.18372,-0.0485 -0.33197,-0.16088 -0.205902,-0.1561 -0.265013,-0.31764 -0.107994,-0.30235 0.185465,-0.68944 -0.510781,0.0408 -0.841292,-0.002 -0.495767,-0.0646 -0.808738,-0.30184 -0.354152,-0.26848 -0.44288,-0.6989 -0.08049,-0.42416 0.21921,-0.8195 0.424578,-0.56005 1.226415,-0.52283 0.549702,0.0276 2.068879,0.45304 l 0.380871,-0.5024 q 0.293459,-0.3871 0.202204,-0.72864 -0.07106,-0.24842 -0.318147,-0.43573 -0.222374,-0.16858 -0.490982,-0.19064 -0.262363,-0.0303 -0.399726,0.1509 -0.06244,0.0824 -0.122884,0.1792 -0.04597,0.0949 -0.07944,0.17322 -0.106145,0.14002 -0.294383,0.16592 -0.188239,0.0259 -0.344724,-0.0927 -0.172958,-0.13112 -0.176142,-0.31511 0.0031,-0.19222 0.09672,-0.31577 0.231021,-0.30473 0.750037,-0.33926 0.643092,-0.0442 1.285507,0.4428 0.7989,0.60565 0.714795,1.28115 -0.04956,0.39042 -0.486626,0.96695 l -1.217541,1.60603 q -0.193558,0.25532 -0.248026,0.3956 -0.03999,0.13829 0.124732,0.26317 0.115306,0.0874 0.228886,0.10867 0.113579,0.0213 0.260371,0.0158 z"
         style="font-style:normal;font-variant:normal;font-weight:bold;font-stretch:normal;font-family:Rekha;-inkscape-font-specification:'Rekha Bold';fill:#ffff00;fill-opacity:1;stroke:#ffff00;stroke-width:0.26458332;stroke-opacity:1"
         id="path885" />
      <path
         d="m 44.919453,-208.78289 0.109147,-0.1101 q 0.322946,0.32017 0.549529,0.3265 0.241198,0.006 0.539534,-0.29467 l 3.470882,-3.50102 q 0.261954,-0.26423 0.290554,-0.41052 0.03588,-0.15363 -0.176974,-0.36465 l -0.264102,-0.23272 0.116424,-0.11743 q 0.696069,0.41356 0.90854,0.53688 0.05859,0.029 0.578634,0.29713 l 0.01481,0.0438 -4.34406,4.38179 q -0.312889,0.3156 -0.297388,0.52017 0.0155,0.20456 0.345786,0.532 l -0.109147,0.1101 z"
         style="font-style:normal;font-variant:normal;font-weight:bold;font-stretch:normal;font-family:Rekha;-inkscape-font-specification:'Rekha Bold';fill:#ffff00;fill-opacity:1;stroke:#ffff00;stroke-width:0.26458332;stroke-opacity:1"
         id="path887" />
      <path
         d="m 46.912567,-206.78329 0.119864,-0.0983 q 0.321175,0.39156 0.539359,0.4131 0.218183,0.0216 0.673668,-0.35207 l 1.853902,-1.52066 q 0.311648,-0.25563 0.34343,-0.42874 0.01805,-0.10837 -0.09338,-0.24422 -0.06555,-0.0799 -0.112864,-0.1213 -0.03277,-0.04 -0.181283,-0.17212 l 0.119864,-0.0983 q 0.42793,0.27726 0.712469,0.44489 0.500658,0.28443 0.742996,0.43321 l 0.0022,0.0516 -2.83679,2.32689 q -0.423521,0.34739 -0.480712,0.55471 -0.05064,0.21531 0.270538,0.60687 l -0.119864,0.0983 z m 5.456671,-3.64707 q 0.143838,-0.11798 0.327812,-0.12184 0.250147,-0.005 0.407457,0.18711 0.144201,0.1758 0.122656,0.39398 -0.02155,0.21818 -0.189356,0.35583 -0.175801,0.1442 -0.393984,0.12266 -0.203638,-0.0201 -0.354394,-0.2039 -0.15731,-0.19179 -0.106674,-0.4071 0.05064,-0.21531 0.186483,-0.32674 z"
         style="font-style:normal;font-variant:normal;font-weight:bold;font-stretch:normal;font-family:Rekha;-inkscape-font-specification:'Rekha Bold';fill:#ffff00;fill-opacity:1;stroke:#ffff00;stroke-width:0.26458332;stroke-opacity:1"
         id="path889" />
      <path
         d="m 52.134541,-201.77232 -1.263894,0.60849 -2.043334,-3.31764 0.132001,-0.0813 5.00576,0.14574 -0.747958,-1.21442 q -0.270999,-0.44 -0.565541,-0.46494 -0.177402,-0.0121 -0.664147,0.20269 l -0.09756,-0.1584 1.054673,-0.61316 1.880735,3.05364 -0.132002,0.0813 -5.02202,-0.17214 0.747958,1.21442 q 0.401079,0.65121 0.751161,0.72691 0.236322,0.0487 0.901809,-0.19127 z"
         style="font-style:normal;font-variant:normal;font-weight:bold;font-stretch:normal;font-family:Rekha;-inkscape-font-specification:'Rekha Bold';fill:#ffff00;fill-opacity:1;stroke:#ffff00;stroke-width:0.26458332;stroke-opacity:1"
         id="path891" />
      <path
         d="m 54.244011,-197.52706 -0.0052,0.18043 q -0.564129,0.0383 -1.123257,-0.15954 -0.937653,-0.33479 -1.297481,-1.22607 -0.328875,-0.81462 0.03924,-1.53167 0.368115,-0.71705 1.383992,-1.12718 1.197967,-0.48364 2.118654,-0.0528 0.741931,0.34693 1.028246,1.05612 0.290184,0.71878 0.05791,1.30297 -0.251265,0.64758 -1.130767,1.09182 l -1.203297,-2.98054 q -1.150048,0.46429 -1.468221,1.19461 -0.249598,0.56889 -0.0058,1.17267 0.224409,0.55586 0.758833,0.83051 0.30757,0.15448 0.847173,0.24871 z m 0.186346,-3.54156 0.797039,1.97425 q 0.467402,-0.27787 0.637529,-0.49145 0.29436,-0.37519 0.09317,-0.87354 -0.174111,-0.43127 -0.527754,-0.58943 -0.340191,-0.15245 -0.99998,-0.0198 z"
         style="font-style:normal;font-variant:normal;font-weight:bold;font-stretch:normal;font-family:Rekha;-inkscape-font-specification:'Rekha Bold';fill:#ffff00;fill-opacity:1;stroke:#ffff00;stroke-width:0.26458332;stroke-opacity:1"
         id="path893" />
    </g>
  </g>
</svg>
