<?xml version="1.0" standalone="no"?>
<!-- Creator: fig2dev Version 3.2.7a -->
<!-- CreationDate: 2019-10-05 21:23:36 -->
<!-- Magnification: 1.05 -->
<svg	xmlns="http://www.w3.org/2000/svg"
	xmlns:xlink="http://www.w3.org/1999/xlink"
	width="479pt" height="309pt"
	viewBox="428 465 7592 4905">
<g fill="none">
<!-- Line -->
<polyline points=" 1260,1035 1260,4770"
	stroke="#000000" stroke-width="15px"/>
<!-- Line -->
<polyline points=" 1260,1485 4500,1485"
	stroke="#000000" stroke-width="15px"/>
<!-- Line -->
<polyline points=" 1665,1080 1665,4770"
	stroke="#000000" stroke-width="15px"/>
<!-- Line -->
<polyline points=" 2070,1035 2070,4770"
	stroke="#000000" stroke-width="15px"/>
<!-- Line -->
<polyline points=" 2475,1035 2475,4770"
	stroke="#000000" stroke-width="15px"/>
<!-- Line -->
<polyline points=" 3285,1035 3285,4770"
	stroke="#000000" stroke-width="15px"/>
<!-- Line -->
<polyline points=" 2880,1035 2880,4770"
	stroke="#000000" stroke-width="15px"/>
<!-- Line -->
<polyline points=" 3690,1035 3690,4770"
	stroke="#000000" stroke-width="15px"/>
<!-- Line -->
<polyline points=" 4095,1035 4095,4770"
	stroke="#000000" stroke-width="15px"/>
<!-- Line -->
<polyline points=" 4500,1035 4500,4770"
	stroke="#000000" stroke-width="15px"/>
<!-- Line -->
<polyline points=" 1260,1890 4500,1890"
	stroke="#000000" stroke-width="15px"/>
<!-- Line -->
<polyline points=" 1260,2295 4500,2295"
	stroke="#000000" stroke-width="15px"/>
<!-- Line -->
<polyline points=" 1260,2700 4500,2700"
	stroke="#000000" stroke-width="15px"/>
<!-- Line -->
<polyline points=" 1260,3105 4500,3105"
	stroke="#000000" stroke-width="15px"/>
<!-- Line -->
<polyline points=" 1260,3510 4500,3510"
	stroke="#000000" stroke-width="15px"/>
<!-- Line -->
<polyline points=" 1260,3915 4500,3915"
	stroke="#000000" stroke-width="15px"/>
<!-- Line -->
<polyline points=" 1305,4320 4500,4320"
	stroke="#000000" stroke-width="15px"/>
<!-- Line -->
<polyline points=" 3465,4365 3465,5085"
	stroke="#b00000" stroke-width="15px"/>
<!-- Text -->
<text xml:space="preserve" x="3465" y="5310" fill="#000000" font-family="Helvetica" font-style="normal" font-weight="bold" font-size="180" text-anchor="middle">NoC</text>
<!-- Line -->
<rect x="1215" y="1350" width="180" height="270" fill="#e5e5ff"/>
<!-- Line -->
<rect x="1125" y="1350" width="90" height="270" fill="#ffcccc"/>
<!-- Line -->
<rect x="1215" y="1755" width="180" height="270" fill="#e5e5ff"/>
<!-- Line -->
<rect x="1125" y="1755" width="90" height="270" fill="#ffcccc"/>
<!-- Line -->
<rect x="1620" y="1755" width="180" height="270" fill="#e5e5ff"/>
<!-- Line -->
<rect x="1530" y="1755" width="90" height="270" fill="#ffcccc"/>
<!-- Line -->
<rect x="1620" y="1350" width="180" height="270" fill="#e5e5ff"/>
<!-- Line -->
<rect x="1530" y="1350" width="90" height="270" fill="#ffcccc"/>
<!-- Line -->
<rect x="2025" y="1350" width="180" height="270" fill="#e5e5ff"/>
<!-- Line -->
<rect x="1935" y="1350" width="90" height="270" fill="#ffcccc"/>
<!-- Line -->
<rect x="2430" y="1350" width="180" height="270" fill="#e5e5ff"/>
<!-- Line -->
<rect x="2340" y="1350" width="90" height="270" fill="#ffcccc"/>
<!-- Line -->
<rect x="2835" y="1350" width="180" height="270" fill="#e5e5ff"/>
<!-- Line -->
<rect x="2745" y="1350" width="90" height="270" fill="#ffcccc"/>
<!-- Line -->
<rect x="3240" y="1350" width="180" height="270" fill="#e5e5ff"/>
<!-- Line -->
<rect x="3150" y="1350" width="90" height="270" fill="#ffcccc"/>
<!-- Line -->
<rect x="3645" y="1350" width="180" height="270" fill="#e5e5ff"/>
<!-- Line -->
<rect x="3555" y="1350" width="90" height="270" fill="#ffcccc"/>
<!-- Line -->
<rect x="4050" y="1350" width="180" height="270" fill="#e5e5ff"/>
<!-- Line -->
<rect x="3960" y="1350" width="90" height="270" fill="#ffcccc"/>
<!-- Line -->
<rect x="4455" y="1350" width="180" height="270" fill="#e5e5ff"/>
<!-- Line -->
<rect x="4365" y="1350" width="90" height="270" fill="#ffcccc"/>
<!-- Line -->
<rect x="2025" y="1755" width="180" height="270" fill="#e5e5ff"/>
<!-- Line -->
<rect x="1935" y="1755" width="90" height="270" fill="#ffcccc"/>
<!-- Line -->
<rect x="2430" y="1755" width="180" height="270" fill="#e5e5ff"/>
<!-- Line -->
<rect x="2340" y="1755" width="90" height="270" fill="#ffcccc"/>
<!-- Line -->
<rect x="2835" y="1755" width="180" height="270" fill="#e5e5ff"/>
<!-- Line -->
<rect x="2745" y="1755" width="90" height="270" fill="#ffcccc"/>
<!-- Line -->
<rect x="3240" y="1755" width="180" height="270" fill="#e5e5ff"/>
<!-- Line -->
<rect x="3150" y="1755" width="90" height="270" fill="#ffcccc"/>
<!-- Line -->
<rect x="3645" y="1755" width="180" height="270" fill="#e5e5ff"/>
<!-- Line -->
<rect x="3555" y="1755" width="90" height="270" fill="#ffcccc"/>
<!-- Line -->
<rect x="4050" y="1755" width="180" height="270" fill="#e5e5ff"/>
<!-- Line -->
<rect x="3960" y="1755" width="90" height="270" fill="#ffcccc"/>
<!-- Line -->
<rect x="4455" y="1755" width="180" height="270" fill="#e5e5ff"/>
<!-- Line -->
<rect x="4365" y="1755" width="90" height="270" fill="#ffcccc"/>
<!-- Line -->
<rect x="1215" y="2160" width="180" height="270" fill="#e5e5ff"/>
<!-- Line -->
<rect x="1125" y="2160" width="90" height="270" fill="#ffcccc"/>
<!-- Line -->
<rect x="1620" y="2160" width="180" height="270" fill="#e5e5ff"/>
<!-- Line -->
<rect x="1530" y="2160" width="90" height="270" fill="#ffcccc"/>
<!-- Line -->
<rect x="2025" y="2160" width="180" height="270" fill="#e5e5ff"/>
<!-- Line -->
<rect x="1935" y="2160" width="90" height="270" fill="#ffcccc"/>
<!-- Line -->
<rect x="2430" y="2160" width="180" height="270" fill="#e5e5ff"/>
<!-- Line -->
<rect x="2340" y="2160" width="90" height="270" fill="#ffcccc"/>
<!-- Line -->
<rect x="2835" y="2160" width="180" height="270" fill="#e5e5ff"/>
<!-- Line -->
<rect x="2745" y="2160" width="90" height="270" fill="#ffcccc"/>
<!-- Line -->
<rect x="3240" y="2160" width="180" height="270" fill="#e5e5ff"/>
<!-- Line -->
<rect x="3150" y="2160" width="90" height="270" fill="#ffcccc"/>
<!-- Line -->
<rect x="3645" y="2160" width="180" height="270" fill="#e5e5ff"/>
<!-- Line -->
<rect x="3555" y="2160" width="90" height="270" fill="#ffcccc"/>
<!-- Line -->
<rect x="4050" y="2160" width="180" height="270" fill="#e5e5ff"/>
<!-- Line -->
<rect x="3960" y="2160" width="90" height="270" fill="#ffcccc"/>
<!-- Line -->
<rect x="4455" y="2160" width="180" height="270" fill="#e5e5ff"/>
<!-- Line -->
<rect x="4365" y="2160" width="90" height="270" fill="#ffcccc"/>
<!-- Line -->
<rect x="1215" y="2565" width="180" height="270" fill="#e5e5ff"/>
<!-- Line -->
<rect x="1125" y="2565" width="90" height="270" fill="#ffcccc"/>
<!-- Line -->
<rect x="1215" y="2970" width="180" height="270" fill="#e5e5ff"/>
<!-- Line -->
<rect x="1125" y="2970" width="90" height="270" fill="#ffcccc"/>
<!-- Line -->
<rect x="1215" y="3375" width="180" height="270" fill="#e5e5ff"/>
<!-- Line -->
<rect x="1125" y="3375" width="90" height="270" fill="#ffcccc"/>
<!-- Line -->
<rect x="1620" y="2565" width="180" height="270" fill="#e5e5ff"/>
<!-- Line -->
<rect x="1530" y="2565" width="90" height="270" fill="#ffcccc"/>
<!-- Line -->
<rect x="2025" y="2565" width="180" height="270" fill="#e5e5ff"/>
<!-- Line -->
<rect x="1935" y="2565" width="90" height="270" fill="#ffcccc"/>
<!-- Line -->
<rect x="2430" y="2565" width="180" height="270" fill="#e5e5ff"/>
<!-- Line -->
<rect x="2340" y="2565" width="90" height="270" fill="#ffcccc"/>
<!-- Line -->
<rect x="2835" y="2565" width="180" height="270" fill="#e5e5ff"/>
<!-- Line -->
<rect x="2745" y="2565" width="90" height="270" fill="#ffcccc"/>
<!-- Line -->
<rect x="3240" y="2565" width="180" height="270" fill="#e5e5ff"/>
<!-- Line -->
<rect x="3150" y="2565" width="90" height="270" fill="#ffcccc"/>
<!-- Line -->
<rect x="3645" y="2565" width="180" height="270" fill="#e5e5ff"/>
<!-- Line -->
<rect x="3555" y="2565" width="90" height="270" fill="#ffcccc"/>
<!-- Line -->
<rect x="4050" y="2565" width="180" height="270" fill="#e5e5ff"/>
<!-- Line -->
<rect x="3960" y="2565" width="90" height="270" fill="#ffcccc"/>
<!-- Line -->
<rect x="4455" y="2565" width="180" height="270" fill="#e5e5ff"/>
<!-- Line -->
<rect x="4365" y="2565" width="90" height="270" fill="#ffcccc"/>
<!-- Line -->
<rect x="1215" y="3780" width="180" height="270" fill="#e5e5ff"/>
<!-- Line -->
<rect x="1125" y="3780" width="90" height="270" fill="#ffcccc"/>
<!-- Line -->
<rect x="1215" y="4185" width="180" height="270" fill="#e5e5ff"/>
<!-- Line -->
<rect x="1125" y="4185" width="90" height="270" fill="#ffcccc"/>
<!-- Line -->
<rect x="1620" y="2970" width="180" height="270" fill="#e5e5ff"/>
<!-- Line -->
<rect x="1530" y="2970" width="90" height="270" fill="#ffcccc"/>
<!-- Line -->
<rect x="2025" y="2970" width="180" height="270" fill="#e5e5ff"/>
<!-- Line -->
<rect x="1935" y="2970" width="90" height="270" fill="#ffcccc"/>
<!-- Line -->
<rect x="2430" y="2970" width="180" height="270" fill="#e5e5ff"/>
<!-- Line -->
<rect x="2340" y="2970" width="90" height="270" fill="#ffcccc"/>
<!-- Line -->
<rect x="2835" y="2970" width="180" height="270" fill="#e5e5ff"/>
<!-- Line -->
<rect x="2745" y="2970" width="90" height="270" fill="#ffcccc"/>
<!-- Line -->
<rect x="3240" y="2970" width="180" height="270" fill="#e5e5ff"/>
<!-- Line -->
<rect x="3150" y="2970" width="90" height="270" fill="#ffcccc"/>
<!-- Line -->
<rect x="3645" y="2970" width="180" height="270" fill="#e5e5ff"/>
<!-- Line -->
<rect x="3555" y="2970" width="90" height="270" fill="#ffcccc"/>
<!-- Line -->
<rect x="4050" y="2970" width="180" height="270" fill="#e5e5ff"/>
<!-- Line -->
<rect x="3960" y="2970" width="90" height="270" fill="#ffcccc"/>
<!-- Line -->
<rect x="4455" y="2970" width="180" height="270" fill="#e5e5ff"/>
<!-- Line -->
<rect x="4365" y="2970" width="90" height="270" fill="#ffcccc"/>
<!-- Line -->
<rect x="1620" y="3375" width="180" height="270" fill="#e5e5ff"/>
<!-- Line -->
<rect x="1530" y="3375" width="90" height="270" fill="#ffcccc"/>
<!-- Line -->
<rect x="2025" y="3375" width="180" height="270" fill="#e5e5ff"/>
<!-- Line -->
<rect x="1935" y="3375" width="90" height="270" fill="#ffcccc"/>
<!-- Line -->
<rect x="2430" y="3375" width="180" height="270" fill="#e5e5ff"/>
<!-- Line -->
<rect x="2340" y="3375" width="90" height="270" fill="#ffcccc"/>
<!-- Line -->
<rect x="2835" y="3375" width="180" height="270" fill="#e5e5ff"/>
<!-- Line -->
<rect x="2745" y="3375" width="90" height="270" fill="#ffcccc"/>
<!-- Line -->
<rect x="3240" y="3375" width="180" height="270" fill="#e5e5ff"/>
<!-- Line -->
<rect x="3150" y="3375" width="90" height="270" fill="#ffcccc"/>
<!-- Line -->
<rect x="3645" y="3375" width="180" height="270" fill="#e5e5ff"/>
<!-- Line -->
<rect x="3555" y="3375" width="90" height="270" fill="#ffcccc"/>
<!-- Line -->
<rect x="4050" y="3375" width="180" height="270" fill="#e5e5ff"/>
<!-- Line -->
<rect x="3960" y="3375" width="90" height="270" fill="#ffcccc"/>
<!-- Line -->
<rect x="4455" y="3375" width="180" height="270" fill="#e5e5ff"/>
<!-- Line -->
<rect x="4365" y="3375" width="90" height="270" fill="#ffcccc"/>
<!-- Line -->
<rect x="1620" y="3780" width="180" height="270" fill="#e5e5ff"/>
<!-- Line -->
<rect x="1530" y="3780" width="90" height="270" fill="#ffcccc"/>
<!-- Line -->
<rect x="2025" y="3780" width="180" height="270" fill="#e5e5ff"/>
<!-- Line -->
<rect x="1935" y="3780" width="90" height="270" fill="#ffcccc"/>
<!-- Line -->
<rect x="2430" y="3780" width="180" height="270" fill="#e5e5ff"/>
<!-- Line -->
<rect x="2340" y="3780" width="90" height="270" fill="#ffcccc"/>
<!-- Line -->
<rect x="2835" y="3780" width="180" height="270" fill="#e5e5ff"/>
<!-- Line -->
<rect x="2745" y="3780" width="90" height="270" fill="#ffcccc"/>
<!-- Line -->
<rect x="3240" y="3780" width="180" height="270" fill="#e5e5ff"/>
<!-- Line -->
<rect x="3150" y="3780" width="90" height="270" fill="#ffcccc"/>
<!-- Line -->
<rect x="3645" y="3780" width="180" height="270" fill="#e5e5ff"/>
<!-- Line -->
<rect x="3555" y="3780" width="90" height="270" fill="#ffcccc"/>
<!-- Line -->
<rect x="4050" y="3780" width="180" height="270" fill="#e5e5ff"/>
<!-- Line -->
<rect x="3960" y="3780" width="90" height="270" fill="#ffcccc"/>
<!-- Line -->
<rect x="4455" y="3780" width="180" height="270" fill="#e5e5ff"/>
<!-- Line -->
<rect x="4365" y="3780" width="90" height="270" fill="#ffcccc"/>
<!-- Line -->
<rect x="1620" y="4185" width="180" height="270" fill="#e5e5ff"/>
<!-- Line -->
<rect x="1530" y="4185" width="90" height="270" fill="#ffcccc"/>
<!-- Line -->
<rect x="2025" y="4185" width="180" height="270" fill="#e5e5ff"/>
<!-- Line -->
<rect x="1935" y="4185" width="90" height="270" fill="#ffcccc"/>
<!-- Line -->
<rect x="2430" y="4185" width="180" height="270" fill="#e5e5ff"/>
<!-- Line -->
<rect x="2340" y="4185" width="90" height="270" fill="#ffcccc"/>
<!-- Line -->
<rect x="2835" y="4185" width="180" height="270" fill="#e5e5ff"/>
<!-- Line -->
<rect x="2745" y="4185" width="90" height="270" fill="#ffcccc"/>
<!-- Line -->
<rect x="3240" y="4185" width="180" height="270" fill="#e5e5ff"/>
<!-- Line -->
<rect x="3150" y="4185" width="90" height="270" fill="#ffcccc"/>
<!-- Line -->
<rect x="3645" y="4185" width="180" height="270" fill="#e5e5ff"/>
<!-- Line -->
<rect x="3555" y="4185" width="90" height="270" fill="#ffcccc"/>
<!-- Line -->
<rect x="4050" y="4185" width="180" height="270" fill="#e5e5ff"/>
<!-- Line -->
<rect x="3960" y="4185" width="90" height="270" fill="#ffcccc"/>
<!-- Line -->
<rect x="4455" y="4185" width="180" height="270" fill="#e5e5ff"/>
<!-- Line -->
<rect x="4365" y="4185" width="90" height="270" fill="#ffcccc"/>
<!-- Line -->
<rect x="1125" y="1350" width="270" height="270"
	stroke="#000000" stroke-width="15px"/>
<!-- Line -->
<polyline points=" 1215,1350 1215,1620"
	stroke="#a0a0a0" stroke-width="15px"/>
<!-- Line -->
<polyline points=" 1215,1755 1215,2025"
	stroke="#a0a0a0" stroke-width="15px"/>
<!-- Line -->
<rect x="1125" y="1755" width="270" height="270"
	stroke="#000000" stroke-width="15px"/>
<!-- Line -->
<polyline points=" 1620,1755 1620,2025"
	stroke="#a0a0a0" stroke-width="15px"/>
<!-- Line -->
<rect x="1530" y="1755" width="270" height="270"
	stroke="#000000" stroke-width="15px"/>
<!-- Line -->
<polyline points=" 1620,1350 1620,1620"
	stroke="#a0a0a0" stroke-width="15px"/>
<!-- Line -->
<rect x="1530" y="1350" width="270" height="270"
	stroke="#000000" stroke-width="15px"/>
<!-- Line -->
<polyline points=" 2025,1350 2025,1620"
	stroke="#a0a0a0" stroke-width="15px"/>
<!-- Line -->
<rect x="1935" y="1350" width="270" height="270"
	stroke="#000000" stroke-width="15px"/>
<!-- Line -->
<polyline points=" 2430,1350 2430,1620"
	stroke="#a0a0a0" stroke-width="15px"/>
<!-- Line -->
<rect x="2340" y="1350" width="270" height="270"
	stroke="#000000" stroke-width="15px"/>
<!-- Line -->
<polyline points=" 2835,1350 2835,1620"
	stroke="#a0a0a0" stroke-width="15px"/>
<!-- Line -->
<rect x="2745" y="1350" width="270" height="270"
	stroke="#000000" stroke-width="15px"/>
<!-- Line -->
<polyline points=" 3240,1350 3240,1620"
	stroke="#a0a0a0" stroke-width="15px"/>
<!-- Line -->
<rect x="3150" y="1350" width="270" height="270"
	stroke="#000000" stroke-width="15px"/>
<!-- Line -->
<polyline points=" 3645,1350 3645,1620"
	stroke="#a0a0a0" stroke-width="15px"/>
<!-- Line -->
<rect x="3555" y="1350" width="270" height="270"
	stroke="#000000" stroke-width="15px"/>
<!-- Line -->
<polyline points=" 4050,1350 4050,1620"
	stroke="#a0a0a0" stroke-width="15px"/>
<!-- Line -->
<rect x="3960" y="1350" width="270" height="270"
	stroke="#000000" stroke-width="15px"/>
<!-- Line -->
<polyline points=" 4455,1350 4455,1620"
	stroke="#a0a0a0" stroke-width="15px"/>
<!-- Line -->
<rect x="4365" y="1350" width="270" height="270"
	stroke="#000000" stroke-width="15px"/>
<!-- Line -->
<polyline points=" 2025,1755 2025,2025"
	stroke="#a0a0a0" stroke-width="15px"/>
<!-- Line -->
<rect x="1935" y="1755" width="270" height="270"
	stroke="#000000" stroke-width="15px"/>
<!-- Line -->
<polyline points=" 2430,1755 2430,2025"
	stroke="#a0a0a0" stroke-width="15px"/>
<!-- Line -->
<rect x="2340" y="1755" width="270" height="270"
	stroke="#000000" stroke-width="15px"/>
<!-- Line -->
<polyline points=" 2835,1755 2835,2025"
	stroke="#a0a0a0" stroke-width="15px"/>
<!-- Line -->
<rect x="2745" y="1755" width="270" height="270"
	stroke="#000000" stroke-width="15px"/>
<!-- Line -->
<polyline points=" 3240,1755 3240,2025"
	stroke="#a0a0a0" stroke-width="15px"/>
<!-- Line -->
<rect x="3150" y="1755" width="270" height="270"
	stroke="#000000" stroke-width="15px"/>
<!-- Line -->
<polyline points=" 3645,1755 3645,2025"
	stroke="#a0a0a0" stroke-width="15px"/>
<!-- Line -->
<rect x="3555" y="1755" width="270" height="270"
	stroke="#000000" stroke-width="15px"/>
<!-- Line -->
<polyline points=" 4050,1755 4050,2025"
	stroke="#a0a0a0" stroke-width="15px"/>
<!-- Line -->
<rect x="3960" y="1755" width="270" height="270"
	stroke="#000000" stroke-width="15px"/>
<!-- Line -->
<polyline points=" 4455,1755 4455,2025"
	stroke="#a0a0a0" stroke-width="15px"/>
<!-- Line -->
<rect x="4365" y="1755" width="270" height="270"
	stroke="#000000" stroke-width="15px"/>
<!-- Line -->
<polyline points=" 1215,2160 1215,2430"
	stroke="#a0a0a0" stroke-width="15px"/>
<!-- Line -->
<rect x="1125" y="2160" width="270" height="270"
	stroke="#000000" stroke-width="15px"/>
<!-- Line -->
<polyline points=" 1620,2160 1620,2430"
	stroke="#a0a0a0" stroke-width="15px"/>
<!-- Line -->
<rect x="1530" y="2160" width="270" height="270"
	stroke="#000000" stroke-width="15px"/>
<!-- Line -->
<polyline points=" 2025,2160 2025,2430"
	stroke="#a0a0a0" stroke-width="15px"/>
<!-- Line -->
<rect x="1935" y="2160" width="270" height="270"
	stroke="#000000" stroke-width="15px"/>
<!-- Line -->
<polyline points=" 2430,2160 2430,2430"
	stroke="#a0a0a0" stroke-width="15px"/>
<!-- Line -->
<rect x="2340" y="2160" width="270" height="270"
	stroke="#000000" stroke-width="15px"/>
<!-- Line -->
<polyline points=" 2835,2160 2835,2430"
	stroke="#a0a0a0" stroke-width="15px"/>
<!-- Line -->
<rect x="2745" y="2160" width="270" height="270"
	stroke="#000000" stroke-width="15px"/>
<!-- Line -->
<polyline points=" 3240,2160 3240,2430"
	stroke="#a0a0a0" stroke-width="15px"/>
<!-- Line -->
<rect x="3150" y="2160" width="270" height="270"
	stroke="#000000" stroke-width="15px"/>
<!-- Line -->
<polyline points=" 3645,2160 3645,2430"
	stroke="#a0a0a0" stroke-width="15px"/>
<!-- Line -->
<rect x="3555" y="2160" width="270" height="270"
	stroke="#000000" stroke-width="15px"/>
<!-- Line -->
<polyline points=" 4050,2160 4050,2430"
	stroke="#a0a0a0" stroke-width="15px"/>
<!-- Line -->
<rect x="3960" y="2160" width="270" height="270"
	stroke="#000000" stroke-width="15px"/>
<!-- Line -->
<polyline points=" 4455,2160 4455,2430"
	stroke="#a0a0a0" stroke-width="15px"/>
<!-- Line -->
<rect x="4365" y="2160" width="270" height="270"
	stroke="#000000" stroke-width="15px"/>
<!-- Line -->
<polyline points=" 1215,2565 1215,2835"
	stroke="#a0a0a0" stroke-width="15px"/>
<!-- Line -->
<rect x="1125" y="2565" width="270" height="270"
	stroke="#000000" stroke-width="15px"/>
<!-- Line -->
<polyline points=" 1215,2970 1215,3240"
	stroke="#a0a0a0" stroke-width="15px"/>
<!-- Line -->
<rect x="1125" y="2970" width="270" height="270"
	stroke="#000000" stroke-width="15px"/>
<!-- Line -->
<polyline points=" 1215,3375 1215,3645"
	stroke="#a0a0a0" stroke-width="15px"/>
<!-- Line -->
<rect x="1125" y="3375" width="270" height="270"
	stroke="#000000" stroke-width="15px"/>
<!-- Line -->
<polyline points=" 1620,2565 1620,2835"
	stroke="#a0a0a0" stroke-width="15px"/>
<!-- Line -->
<rect x="1530" y="2565" width="270" height="270"
	stroke="#000000" stroke-width="15px"/>
<!-- Line -->
<polyline points=" 2025,2565 2025,2835"
	stroke="#a0a0a0" stroke-width="15px"/>
<!-- Line -->
<rect x="1935" y="2565" width="270" height="270"
	stroke="#000000" stroke-width="15px"/>
<!-- Line -->
<polyline points=" 2430,2565 2430,2835"
	stroke="#a0a0a0" stroke-width="15px"/>
<!-- Line -->
<rect x="2340" y="2565" width="270" height="270"
	stroke="#000000" stroke-width="15px"/>
<!-- Line -->
<polyline points=" 2835,2565 2835,2835"
	stroke="#a0a0a0" stroke-width="15px"/>
<!-- Line -->
<rect x="2745" y="2565" width="270" height="270"
	stroke="#000000" stroke-width="15px"/>
<!-- Line -->
<polyline points=" 3240,2565 3240,2835"
	stroke="#a0a0a0" stroke-width="15px"/>
<!-- Line -->
<rect x="3150" y="2565" width="270" height="270"
	stroke="#000000" stroke-width="15px"/>
<!-- Line -->
<polyline points=" 3645,2565 3645,2835"
	stroke="#a0a0a0" stroke-width="15px"/>
<!-- Line -->
<rect x="3555" y="2565" width="270" height="270"
	stroke="#000000" stroke-width="15px"/>
<!-- Line -->
<polyline points=" 4050,2565 4050,2835"
	stroke="#a0a0a0" stroke-width="15px"/>
<!-- Line -->
<rect x="3960" y="2565" width="270" height="270"
	stroke="#000000" stroke-width="15px"/>
<!-- Line -->
<polyline points=" 4455,2565 4455,2835"
	stroke="#a0a0a0" stroke-width="15px"/>
<!-- Line -->
<rect x="4365" y="2565" width="270" height="270"
	stroke="#000000" stroke-width="15px"/>
<!-- Line -->
<polyline points=" 1215,3780 1215,4050"
	stroke="#a0a0a0" stroke-width="15px"/>
<!-- Line -->
<rect x="1125" y="3780" width="270" height="270"
	stroke="#000000" stroke-width="15px"/>
<!-- Line -->
<polyline points=" 1215,4185 1215,4455"
	stroke="#a0a0a0" stroke-width="15px"/>
<!-- Line -->
<rect x="1125" y="4185" width="270" height="270"
	stroke="#000000" stroke-width="15px"/>
<!-- Line -->
<polyline points=" 1620,2970 1620,3240"
	stroke="#a0a0a0" stroke-width="15px"/>
<!-- Line -->
<rect x="1530" y="2970" width="270" height="270"
	stroke="#000000" stroke-width="15px"/>
<!-- Line -->
<polyline points=" 2025,2970 2025,3240"
	stroke="#a0a0a0" stroke-width="15px"/>
<!-- Line -->
<rect x="1935" y="2970" width="270" height="270"
	stroke="#000000" stroke-width="15px"/>
<!-- Line -->
<polyline points=" 2430,2970 2430,3240"
	stroke="#a0a0a0" stroke-width="15px"/>
<!-- Line -->
<rect x="2340" y="2970" width="270" height="270"
	stroke="#000000" stroke-width="15px"/>
<!-- Line -->
<polyline points=" 2835,2970 2835,3240"
	stroke="#a0a0a0" stroke-width="15px"/>
<!-- Line -->
<rect x="2745" y="2970" width="270" height="270"
	stroke="#000000" stroke-width="15px"/>
<!-- Line -->
<polyline points=" 3240,2970 3240,3240"
	stroke="#a0a0a0" stroke-width="15px"/>
<!-- Line -->
<rect x="3150" y="2970" width="270" height="270"
	stroke="#000000" stroke-width="15px"/>
<!-- Line -->
<polyline points=" 3645,2970 3645,3240"
	stroke="#a0a0a0" stroke-width="15px"/>
<!-- Line -->
<rect x="3555" y="2970" width="270" height="270"
	stroke="#000000" stroke-width="15px"/>
<!-- Line -->
<polyline points=" 4050,2970 4050,3240"
	stroke="#a0a0a0" stroke-width="15px"/>
<!-- Line -->
<rect x="3960" y="2970" width="270" height="270"
	stroke="#000000" stroke-width="15px"/>
<!-- Line -->
<polyline points=" 4455,2970 4455,3240"
	stroke="#a0a0a0" stroke-width="15px"/>
<!-- Line -->
<rect x="4365" y="2970" width="270" height="270"
	stroke="#000000" stroke-width="15px"/>
<!-- Line -->
<polyline points=" 1620,3375 1620,3645"
	stroke="#a0a0a0" stroke-width="15px"/>
<!-- Line -->
<rect x="1530" y="3375" width="270" height="270"
	stroke="#000000" stroke-width="15px"/>
<!-- Line -->
<polyline points=" 2025,3375 2025,3645"
	stroke="#a0a0a0" stroke-width="15px"/>
<!-- Line -->
<rect x="1935" y="3375" width="270" height="270"
	stroke="#000000" stroke-width="15px"/>
<!-- Line -->
<polyline points=" 2430,3375 2430,3645"
	stroke="#a0a0a0" stroke-width="15px"/>
<!-- Line -->
<rect x="2340" y="3375" width="270" height="270"
	stroke="#000000" stroke-width="15px"/>
<!-- Line -->
<polyline points=" 2835,3375 2835,3645"
	stroke="#a0a0a0" stroke-width="15px"/>
<!-- Line -->
<rect x="2745" y="3375" width="270" height="270"
	stroke="#000000" stroke-width="15px"/>
<!-- Line -->
<polyline points=" 3240,3375 3240,3645"
	stroke="#a0a0a0" stroke-width="15px"/>
<!-- Line -->
<rect x="3150" y="3375" width="270" height="270"
	stroke="#000000" stroke-width="15px"/>
<!-- Line -->
<polyline points=" 3645,3375 3645,3645"
	stroke="#a0a0a0" stroke-width="15px"/>
<!-- Line -->
<rect x="3555" y="3375" width="270" height="270"
	stroke="#000000" stroke-width="15px"/>
<!-- Line -->
<polyline points=" 4050,3375 4050,3645"
	stroke="#a0a0a0" stroke-width="15px"/>
<!-- Line -->
<rect x="3960" y="3375" width="270" height="270"
	stroke="#000000" stroke-width="15px"/>
<!-- Line -->
<polyline points=" 4455,3375 4455,3645"
	stroke="#a0a0a0" stroke-width="15px"/>
<!-- Line -->
<rect x="4365" y="3375" width="270" height="270"
	stroke="#000000" stroke-width="15px"/>
<!-- Line -->
<polyline points=" 1620,3780 1620,4050"
	stroke="#a0a0a0" stroke-width="15px"/>
<!-- Line -->
<rect x="1530" y="3780" width="270" height="270"
	stroke="#000000" stroke-width="15px"/>
<!-- Line -->
<polyline points=" 2025,3780 2025,4050"
	stroke="#a0a0a0" stroke-width="15px"/>
<!-- Line -->
<rect x="1935" y="3780" width="270" height="270"
	stroke="#000000" stroke-width="15px"/>
<!-- Line -->
<polyline points=" 2430,3780 2430,4050"
	stroke="#a0a0a0" stroke-width="15px"/>
<!-- Line -->
<rect x="2340" y="3780" width="270" height="270"
	stroke="#000000" stroke-width="15px"/>
<!-- Line -->
<polyline points=" 2835,3780 2835,4050"
	stroke="#a0a0a0" stroke-width="15px"/>
<!-- Line -->
<rect x="2745" y="3780" width="270" height="270"
	stroke="#000000" stroke-width="15px"/>
<!-- Line -->
<polyline points=" 3240,3780 3240,4050"
	stroke="#a0a0a0" stroke-width="15px"/>
<!-- Line -->
<rect x="3150" y="3780" width="270" height="270"
	stroke="#000000" stroke-width="15px"/>
<!-- Line -->
<polyline points=" 3645,3780 3645,4050"
	stroke="#a0a0a0" stroke-width="15px"/>
<!-- Line -->
<rect x="3555" y="3780" width="270" height="270"
	stroke="#000000" stroke-width="15px"/>
<!-- Line -->
<polyline points=" 4050,3780 4050,4050"
	stroke="#a0a0a0" stroke-width="15px"/>
<!-- Line -->
<rect x="3960" y="3780" width="270" height="270"
	stroke="#000000" stroke-width="15px"/>
<!-- Line -->
<polyline points=" 4455,3780 4455,4050"
	stroke="#a0a0a0" stroke-width="15px"/>
<!-- Line -->
<rect x="4365" y="3780" width="270" height="270"
	stroke="#000000" stroke-width="15px"/>
<!-- Line -->
<polyline points=" 1620,4185 1620,4455"
	stroke="#a0a0a0" stroke-width="15px"/>
<!-- Line -->
<rect x="1530" y="4185" width="270" height="270"
	stroke="#000000" stroke-width="15px"/>
<!-- Line -->
<polyline points=" 2025,4185 2025,4455"
	stroke="#a0a0a0" stroke-width="15px"/>
<!-- Line -->
<rect x="1935" y="4185" width="270" height="270"
	stroke="#000000" stroke-width="15px"/>
<!-- Line -->
<polyline points=" 2430,4185 2430,4455"
	stroke="#a0a0a0" stroke-width="15px"/>
<!-- Line -->
<rect x="2340" y="4185" width="270" height="270"
	stroke="#000000" stroke-width="15px"/>
<!-- Line -->
<polyline points=" 2835,4185 2835,4455"
	stroke="#a0a0a0" stroke-width="15px"/>
<!-- Line -->
<rect x="2745" y="4185" width="270" height="270"
	stroke="#000000" stroke-width="15px"/>
<!-- Line -->
<polyline points=" 3240,4185 3240,4455"
	stroke="#a0a0a0" stroke-width="15px"/>
<!-- Line -->
<rect x="3150" y="4185" width="270" height="270"
	stroke="#000000" stroke-width="15px"/>
<!-- Line -->
<polyline points=" 3645,4185 3645,4455"
	stroke="#a0a0a0" stroke-width="15px"/>
<!-- Line -->
<rect x="3555" y="4185" width="270" height="270"
	stroke="#000000" stroke-width="15px"/>
<!-- Line -->
<polyline points=" 4050,4185 4050,4455"
	stroke="#a0a0a0" stroke-width="15px"/>
<!-- Line -->
<rect x="3960" y="4185" width="270" height="270"
	stroke="#000000" stroke-width="15px"/>
<!-- Line -->
<polyline points=" 4455,4185 4455,4455"
	stroke="#a0a0a0" stroke-width="15px"/>
<!-- Line -->
<rect x="4365" y="4185" width="270" height="270"
	stroke="#000000" stroke-width="15px"/>
<!-- Line -->
<rect x="4860" y="3375" width="450" height="270" fill="#d9b07f"
	stroke="#000000" stroke-width="15px"/>
<!-- Line -->
<rect x="4860" y="3780" width="450" height="270" fill="#d9b07f"
	stroke="#000000" stroke-width="15px"/>
<!-- Line -->
<rect x="4860" y="2970" width="450" height="270" fill="#d9b07f"
	stroke="#000000" stroke-width="15px"/>
<!-- Line -->
<rect x="4860" y="2565" width="450" height="270" fill="#d9b07f"
	stroke="#000000" stroke-width="15px"/>
<!-- Line -->
<rect x="4860" y="2160" width="450" height="270" fill="#d9b07f"
	stroke="#000000" stroke-width="15px"/>
<!-- Line -->
<rect x="4860" y="1755" width="450" height="270" fill="#d9b07f"
	stroke="#000000" stroke-width="15px"/>
<!-- Line -->
<rect x="4860" y="1350" width="450" height="270" fill="#d9b07f"
	stroke="#000000" stroke-width="15px"/>
<!-- Line -->
<rect x="4860" y="4185" width="450" height="270" fill="#d9b07f"
	stroke="#000000" stroke-width="15px"/>
<!-- Line -->
<rect x="450" y="1350" width="450" height="270" fill="#d9b07f"
	stroke="#000000" stroke-width="15px"/>
<!-- Line -->
<rect x="450" y="1755" width="450" height="270" fill="#d9b07f"
	stroke="#000000" stroke-width="15px"/>
<!-- Line -->
<rect x="450" y="2160" width="450" height="270" fill="#d9b07f"
	stroke="#000000" stroke-width="15px"/>
<!-- Line -->
<rect x="450" y="2565" width="450" height="270" fill="#d9b07f"
	stroke="#000000" stroke-width="15px"/>
<!-- Line -->
<rect x="450" y="2970" width="450" height="270" fill="#d9b07f"
	stroke="#000000" stroke-width="15px"/>
<!-- Line -->
<rect x="450" y="3375" width="450" height="270" fill="#d9b07f"
	stroke="#000000" stroke-width="15px"/>
<!-- Line -->
<rect x="450" y="3780" width="450" height="270" fill="#d9b07f"
	stroke="#000000" stroke-width="15px"/>
<!-- Line -->
<rect x="450" y="4185" width="450" height="270" fill="#d9b07f"
	stroke="#000000" stroke-width="15px"/>
<!-- Line -->
<rect x="1125" y="900" width="270" height="225" fill="#d8eed8"
	stroke="#000000" stroke-width="15px"/>
<!-- Line -->
<rect x="1530" y="900" width="270" height="225" fill="#d8eed8"
	stroke="#000000" stroke-width="15px"/>
<!-- Line -->
<rect x="1935" y="900" width="270" height="225" fill="#d8eed8"
	stroke="#000000" stroke-width="15px"/>
<!-- Line -->
<rect x="2340" y="900" width="270" height="225" fill="#d8eed8"
	stroke="#000000" stroke-width="15px"/>
<!-- Line -->
<rect x="2745" y="900" width="270" height="225" fill="#d8eed8"
	stroke="#000000" stroke-width="15px"/>
<!-- Line -->
<rect x="3150" y="900" width="270" height="225" fill="#d8eed8"
	stroke="#000000" stroke-width="15px"/>
<!-- Line -->
<rect x="3555" y="900" width="270" height="225" fill="#d8eed8"
	stroke="#000000" stroke-width="15px"/>
<!-- Line -->
<rect x="3960" y="900" width="270" height="225" fill="#d8eed8"
	stroke="#000000" stroke-width="15px"/>
<!-- Line -->
<rect x="4365" y="900" width="270" height="225" fill="#d8eed8"
	stroke="#000000" stroke-width="15px"/>
<!-- Line -->
<rect x="1125" y="4680" width="270" height="225" fill="#ffea7f"
	stroke="#000000" stroke-width="15px"/>
<!-- Line -->
<rect x="1530" y="4680" width="270" height="225" fill="#ffea7f"
	stroke="#000000" stroke-width="15px"/>
<!-- Line -->
<rect x="1935" y="4680" width="270" height="225" fill="#ffea7f"
	stroke="#000000" stroke-width="15px"/>
<!-- Line -->
<rect x="2340" y="4680" width="270" height="225" fill="#ffea7f"
	stroke="#000000" stroke-width="15px"/>
<!-- Line -->
<rect x="2745" y="4680" width="270" height="225" fill="#ffea7f"
	stroke="#000000" stroke-width="15px"/>
<!-- Line -->
<rect x="3150" y="4680" width="270" height="225" fill="#ffea7f"
	stroke="#000000" stroke-width="15px"/>
<!-- Line -->
<rect x="3555" y="4680" width="270" height="225" fill="#ffea7f"
	stroke="#000000" stroke-width="15px"/>
<!-- Line -->
<rect x="3960" y="4680" width="270" height="225" fill="#ffea7f"
	stroke="#000000" stroke-width="15px"/>
<!-- Line -->
<rect x="4365" y="4680" width="270" height="225" fill="#ffea7f"
	stroke="#000000" stroke-width="15px"/>
<!-- Line -->
<polyline points=" 2070,5130 2070,4815"
	stroke="#b00000" stroke-width="15px"/>
<!-- Line -->
<polyline points=" 5085,4365 5085,5040"
	stroke="#b00000" stroke-width="15px"/>
<!-- Line -->
<polyline points=" 2070,720 2070,990"
	stroke="#b00000" stroke-width="15px"/>
<!-- Line -->
<polyline points=" 5130,1035 4545,1485"
	stroke="#b00000" stroke-width="15px"/>
<!-- Text -->
<text xml:space="preserve" x="6030" y="5265" fill="#000000" font-family="Helvetica" font-style="normal" font-weight="bold" font-size="180" text-anchor="end">Communication</text>
<!-- Text -->
<text xml:space="preserve" x="2070" y="675" fill="#000000" font-family="Helvetica" font-style="normal" font-weight="bold" font-size="180" text-anchor="middle">Generators</text>
<!-- Text -->
<text xml:space="preserve" x="5175" y="1125" fill="#000000" font-family="Helvetica" font-style="normal" font-weight="bold" font-size="180" text-anchor="start">decentralized memory</text>
<!-- Text -->
<text xml:space="preserve" x="5175" y="900" fill="#000000" font-family="Helvetica" font-style="normal" font-weight="bold" font-size="180" text-anchor="start">72 mixers with</text>
<!-- Text -->
<text xml:space="preserve" x="5535" y="1395" fill="#000000" font-family="Helvetica" font-style="normal" font-weight="bold" font-size="180" text-anchor="start">(1 MB each)</text>
<!-- Text -->
<text xml:space="preserve" x="2070" y="5355" fill="#000000" font-family="Helvetica" font-style="normal" font-weight="bold" font-size="180" text-anchor="middle">Finalizers</text>
</g>
</svg>
