<?xml version="1.0" standalone="no"?>
<!-- Creator: fig2dev Version 3.2.7a -->
<!-- CreationDate: 2019-10-05 21:23:24 -->
<!-- Magnification: 1.05 -->
<svg	xmlns="http://www.w3.org/2000/svg"
	xmlns:xlink="http://www.w3.org/1999/xlink"
	width="306pt" height="191pt"
	viewBox="225 420 4854 3022">
<g fill="none">
<!-- Line -->
<polygon points=" 2025,2115 2340,1845 3060,1845 2745,2115" fill="#ffe5e5"
	stroke="#000000" stroke-width="15px" stroke-linejoin="round"/>
<!-- Line -->
<polyline points=" 4229,1113 4228,1113 4222,1112 4212,1111 4201,1110 4192,1110 4184,1113 4176,1118
 4167,1127 4155,1139 4146,1150 4140,1157 4139,1158"
	stroke="#e0c0e0" stroke-width="30px" stroke-linejoin="bevel"/>
<!-- Line -->
<polyline points=" 4454,888 4453,891 4450,896 4444,906 4436,920 4427,938 4415,959 4402,982 4389,1005
 4376,1027 4364,1048 4353,1066 4343,1082 4334,1095 4326,1105 4319,1113 4308,1122
 4297,1127 4285,1128 4273,1127 4260,1124 4248,1120 4238,1117 4232,1114 4229,1113
"
	stroke="#c080c0" stroke-width="30px" stroke-linejoin="bevel"/>
<!-- Line -->
<polyline points=" 4229,991 4228,991 4222,990 4212,989 4201,988 4192,988 4184,991 4176,996 4167,1005
 4155,1017 4146,1028 4140,1035 4139,1036"
	stroke="#e0c0e0" stroke-width="30px" stroke-linejoin="bevel"/>
<!-- Line -->
<polyline points=" 4454,766 4453,769 4450,774 4444,784 4436,798 4427,816 4415,837 4402,860 4389,883
 4376,905 4364,926 4353,944 4343,960 4334,973 4326,983 4319,991 4308,1000 4297,1005
 4285,1006 4273,1005 4260,1002 4248,998 4238,995 4232,992 4229,991"
	stroke="#c080c0" stroke-width="30px" stroke-linejoin="bevel"/>
<!-- Line -->
<polyline points=" 4229,856 4228,856 4222,855 4212,854 4201,853 4192,853 4184,856 4176,861 4167,870
 4155,882 4146,893 4140,900 4139,901"
	stroke="#e0c0e0" stroke-width="30px" stroke-linejoin="bevel"/>
<!-- Line -->
<polyline points=" 4454,631 4453,634 4450,639 4444,649 4436,663 4427,681 4415,702 4402,725 4389,748
 4376,770 4364,791 4353,809 4343,825 4334,838 4326,848 4319,856 4308,865 4297,870
 4285,871 4273,870 4260,867 4248,863 4238,860 4232,857 4229,856"
	stroke="#c080c0" stroke-width="30px" stroke-linejoin="bevel"/>
<!-- Line -->
<polygon points=" 2025,1890 2340,1620 3060,1620 2745,1890" fill="#ffd8d8"
	stroke="#000000" stroke-width="15px" stroke-linejoin="round"/>
<!-- Line -->
<polyline points=" 2430,2655 3780,1575"
	stroke="#000000" stroke-width="8px" stroke-linejoin="round" stroke-dasharray="20 20"/>
<!-- Line -->
<polyline points=" 1350,2205 2700,1125"
	stroke="#000000" stroke-width="8px" stroke-linejoin="round" stroke-dasharray="20 20"/>
<!-- Circle -->
<circle cx="3375" cy="990" r="180"
	stroke="#a0a0a0" stroke-width="15px"/>
<!-- Circle -->
<circle cx="3825" cy="990" r="180"
	stroke="#a0a0a0" stroke-width="15px"/>
<!-- Line -->
<polyline points=" 3150,1215 3150,765"
	stroke="#c0c0c0" stroke-width="15px"/>
<!-- Line -->
<rect x="1350" y="2205" width="1080" height="450" fill="#e5e5e5"
	stroke="#000000" stroke-width="15px"/>
<!-- Line -->
<polyline points=" 2700,1575 3150,1215 4230,1215"
	stroke="#c0c0c0" stroke-width="15px"/>
<!-- Line -->
<polyline points=" 2295,1890 2340,1845 2790,1845"
	stroke="#c0c0c0" stroke-width="15px"/>
<!-- Circle -->
<circle cx="2317" cy="2475" r="23" fill="#00d800"
	stroke="#000000" stroke-width="8px"/>
<!-- Circle -->
<circle cx="2317" cy="2385" r="23" fill="#d8d8d8"
	stroke="#000000" stroke-width="15px"/>
<!-- Circle -->
<circle cx="2317" cy="2295" r="23" fill="#d8d8d8"
	stroke="#000000" stroke-width="15px"/>
<!-- Line -->
<polyline points=" 3780,1125 4230,765"
	stroke="#000000" stroke-width="15px"/>
<!-- Line -->
<rect x="2700" y="1125" width="1080" height="450"
	stroke="#000000" stroke-width="15px"/>
<!-- Line -->
<polyline points=" 1125,2430 1305,2430"
	stroke="#000000" stroke-width="15px"/>
<!-- Line -->
<polyline points=" 2340,2700 2340,2880 2700,2880"
	stroke="#000000" stroke-width="15px"/>
<!-- Line -->
<polyline points=" 1485,1890 2025,1845"
	stroke="#000000" stroke-width="15px"/>
<!-- Line -->
<polyline points=" 1485,1935 2070,2025"
	stroke="#000000" stroke-width="15px"/>
<!-- Line -->
<polyline points=" 3375,2160 3375,2475"
	stroke="#000000" stroke-width="15px"/>
<!-- Line -->
<polygon points=" 2028,1890 2343,1620 3063,1620 2748,1890"
	stroke="#000000" stroke-width="15px" stroke-linejoin="round"/>
<!-- Line -->
<polyline points=" 3465,810 3555,630"
	stroke="#000000" stroke-width="15px"/>
<!-- Line -->
<polyline points=" 3645,630 3735,810"
	stroke="#000000" stroke-width="15px"/>
<!-- Line -->
<polyline points=" 3105,1620 3555,1620"
	stroke="#000000" stroke-width="8px" stroke-linejoin="round" stroke-dasharray="20 20"/>
<!-- Line -->
<polyline points=" 2745,1890 3240,1890"
	stroke="#000000" stroke-width="8px" stroke-linejoin="round" stroke-dasharray="20 20"/>
<!-- Line -->
<polyline points=" 2745,2115 3240,2115"
	stroke="#000000" stroke-width="8px" stroke-linejoin="round" stroke-dasharray="20 20"/>
<!-- Line -->
<polyline points=" 3060,1845 3555,1845"
	stroke="#000000" stroke-width="8px" stroke-linejoin="round" stroke-dasharray="20 20"/>
<!-- Line -->
<polyline points=" 2340,1620 3015,1080"
	stroke="#000000" stroke-width="8px" stroke-linejoin="round" stroke-dasharray="20 20"/>
<!-- Line -->
<polyline points=" 3060,1845 3735,1305"
	stroke="#000000" stroke-width="8px" stroke-linejoin="round" stroke-dasharray="20 20"/>
<!-- Line -->
<polyline points=" 4005,1440 4095,1575"
	stroke="#000000" stroke-width="15px"/>
<!-- Line -->
<polyline points=" 2385,2385 2385,2295"
	stroke="#000000" stroke-width="15px"/>
<!-- Line -->
<rect x="2250" y="2520" width="90" height="90" fill="#d8d8d8"
	stroke="#000000" stroke-width="15px"/>
<!-- Line -->
<polyline points=" 2700,2745 2700,3420"
	stroke="#000000" stroke-width="15px"/>
<!-- Line -->
<polyline points=" 2700,1125 3150,765 4230,765 4230,1215 3780,1575"
	stroke="#000000" stroke-width="15px"/>
<!-- Line -->
<polyline points=" 3060,1620 3735,1080"
	stroke="#000000" stroke-width="8px" stroke-linejoin="round" stroke-dasharray="20 20"/>
<!-- Line -->
<polyline points=" 3105,945 2475,945"
	stroke="#000000" stroke-width="15px"/>
<!-- Text -->
<text xml:space="preserve" x="1080" y="2475" fill="#000000" font-family="Helvetica" font-style="normal" font-weight="bold" font-size="144" text-anchor="end">Front</text>
<!-- Text -->
<text xml:space="preserve" x="2925" y="2610" fill="#000000" font-family="Helvetica" font-style="normal" font-weight="bold" font-size="144" text-anchor="start">Controller board</text>
<!-- Text -->
<text xml:space="preserve" x="4095" y="1755" fill="#000000" font-family="Helvetica" font-style="normal" font-weight="bold" font-size="144" text-anchor="start">Enclosure</text>
<!-- Text -->
<text xml:space="preserve" x="3600" y="585" fill="#000000" font-family="Helvetica" font-style="normal" font-weight="bold" font-size="144" text-anchor="middle">Fans</text>
<!-- Text -->
<text xml:space="preserve" x="2745" y="2880" fill="#000000" font-family="Helvetica" font-style="normal" font-weight="bold" font-size="144" text-anchor="start">Gigabit Ethernet</text>
<!-- Text -->
<text xml:space="preserve" x="2745" y="3060" fill="#000000" font-family="Helvetica" font-style="normal" font-weight="bold" font-size="144" text-anchor="start">Memory card</text>
<!-- Text -->
<text xml:space="preserve" x="2745" y="3240" fill="#000000" font-family="Helvetica" font-style="normal" font-weight="bold" font-size="144" text-anchor="start">Buttons</text>
<!-- Text -->
<text xml:space="preserve" x="2745" y="3420" fill="#000000" font-family="Helvetica" font-style="normal" font-weight="bold" font-size="144" text-anchor="start">RGB LED</text>
<!-- Text -->
<text xml:space="preserve" x="4905" y="585" fill="#000000" font-family="Helvetica" font-style="normal" font-weight="bold" font-size="144" text-anchor="end">Power</text>
<!-- Text -->
<text xml:space="preserve" x="4905" y="765" fill="#000000" font-family="Helvetica" font-style="normal" font-weight="bold" font-size="144" text-anchor="end">12 V</text>
<!-- Text -->
<text xml:space="preserve" x="2430" y="990" fill="#000000" font-family="Helvetica" font-style="normal" font-weight="bold" font-size="144" text-anchor="end">Rear</text>
<!-- Text -->
<text xml:space="preserve" x="1440" y="2025" fill="#000000" font-family="Helvetica" font-style="normal" font-weight="bold" font-size="144" text-anchor="end">with E1400</text>
<!-- Text -->
<text xml:space="preserve" x="1440" y="1845" fill="#000000" font-family="Helvetica" font-style="normal" font-weight="bold" font-size="144" text-anchor="end">ASIC boards</text>
<!-- Line -->
<polygon points=" 3195,2250 3195,1845 3600,1530 3600,1935" fill="#b2ffff"
	stroke="#000000" stroke-width="15px" stroke-linejoin="round"/>
<!-- Line -->
<defs>
<rect x="1395" y="2250" width="765" height="360" id="p0"/>
<pattern id="tile0" patternUnits="userSpaceOnUse"
	x="0" y="0" width="134" height="67">
<g stroke-width="7.5" stroke="#000000" fill="none">
<path d="M -7,30 73,70 M 61,-3 141,37 M -7,37 73,-3 M 61,70 141,30"/>
</g>
</pattern>
</defs>
<use xlink:href="#p0" fill="#ffffff"/>
<use xlink:href="#p0" fill="url(#tile0)"
	stroke="#000000" stroke-width="15px" stroke-linecap="round"/>
</g>
</svg>
