<?xml version="1.0" standalone="no"?>
<!-- Creator: fig2dev Version 3.2.7a -->
<!-- CreationDate: 2019-10-05 21:23:56 -->
<!-- Magnification: 1.05 -->
<svg	xmlns="http://www.w3.org/2000/svg"
	xmlns:xlink="http://www.w3.org/1999/xlink"
	width="353pt" height="193pt"
	viewBox="338 285 5590 3060">
<g fill="none">
<!-- Line -->
<polyline points=" 3510,1485 3510,2385"
	stroke="#a0a0a0" stroke-width="15px"/>
<!-- Line -->
<polyline points=" 3960,1485 3960,2385"
	stroke="#a0a0a0" stroke-width="15px"/>
<!-- Line -->
<polyline points=" 3285,1710 4185,1710"
	stroke="#a0a0a0" stroke-width="15px"/>
<!-- Line -->
<polyline points=" 3285,2160 4185,2160"
	stroke="#a0a0a0" stroke-width="15px"/>
<!-- Line -->
<polyline points=" 5310,1710 4860,1710"
	stroke="#a0a0a0" stroke-width="15px"/>
<!-- Line -->
<polyline points=" 5310,2160 4860,2160"
	stroke="#a0a0a0" stroke-width="15px"/>
<!-- Line -->
<polyline points=" 5310,2610 4860,2610"
	stroke="#a0a0a0" stroke-width="15px"/>
<!-- Line -->
<polyline points=" 5085,1485 5085,3060"
	stroke="#a0a0a0" stroke-width="15px"/>
<!-- Line -->
<polyline points=" 4635,2835 4635,3060"
	stroke="#a0a0a0" stroke-width="15px"/>
<!-- Line -->
<polyline points=" 5535,2835 5535,3060"
	stroke="#a0a0a0" stroke-width="15px"/>
<!-- Line -->
<polyline points=" 810,630 810,3060"
	stroke="#a0a0a0" stroke-width="15px"/>
<!-- Line -->
<polyline points=" 585,1035 1485,1035"
	stroke="#a0a0a0" stroke-width="15px"/>
<!-- Line -->
<polyline points=" 585,1485 1485,1485"
	stroke="#a0a0a0" stroke-width="15px"/>
<!-- Line -->
<polyline points=" 585,2385 1440,2385"
	stroke="#a0a0a0" stroke-width="15px"/>
<!-- Line -->
<polyline points=" 585,2835 1485,2835"
	stroke="#a0a0a0" stroke-width="15px"/>
<!-- Line -->
<polyline points=" 1260,630 1260,3060"
	stroke="#a0a0a0" stroke-width="15px"/>
<!-- Line -->
<polyline points=" 585,1935 1485,1935"
	stroke="#a0a0a0" stroke-width="15px"/>
<!-- Line -->
<polyline points=" 2925,1710 3960,1710 3960,2160"
	stroke="#000000" stroke-width="15px"/>
<!-- Line -->
<polyline points=" 5085,1710 5085,3060"
	stroke="#000000" stroke-width="15px"/>
<!-- Line -->
<polyline points=" 810,630 810,1035 1260,1035 1260,2385 1800,2385"
	stroke="#000000" stroke-width="15px"/>
<!-- Line -->
<rect x="3915" y="2025" width="180" height="270" fill="#e5e5ff"/>
<!-- Line -->
<rect x="5040" y="1575" width="180" height="270" fill="#e5e5ff"/>
<!-- Line -->
<rect x="3825" y="2025" width="90" height="270" fill="#ffcccc"/>
<!-- Line -->
<rect x="4950" y="1575" width="90" height="270" fill="#ffcccc"/>
<!-- Line -->
<rect x="1215" y="1800" width="180" height="270" fill="#e5e5ff"/>
<!-- Line -->
<rect x="765" y="900" width="180" height="270" fill="#e5e5ff"/>
<!-- Line -->
<rect x="675" y="900" width="90" height="270" fill="#ffcccc"/>
<!-- Line -->
<rect x="1125" y="1800" width="90" height="270" fill="#ffcccc"/>
<!-- Line -->
<polyline points=" 3915,2025 3915,2295"
	stroke="#a0a0a0" stroke-width="15px"/>
<!-- Line -->
<polyline points=" 5040,1575 5040,1845"
	stroke="#a0a0a0" stroke-width="15px"/>
<!-- Line -->
<polyline points=" 1215,1800 1215,2070"
	stroke="#a0a0a0" stroke-width="15px"/>
<!-- Line -->
<polyline points=" 765,900 765,1170"
	stroke="#a0a0a0" stroke-width="15px"/>
<!-- Line -->
<rect x="2700" y="1575" width="450" height="270" fill="#d9b07f"
	stroke="#000000" stroke-width="15px"/>
<!-- Line -->
<rect x="3375" y="2025" width="270" height="270" fill="#f2f2f2"
	stroke="#a0a0a0" stroke-width="15px"/>
<!-- Line -->
<rect x="3825" y="1575" width="270" height="270" fill="#f2f2f2"
	stroke="#a0a0a0" stroke-width="15px"/>
<!-- Line -->
<rect x="3375" y="1575" width="270" height="270" fill="#f2f2f2"
	stroke="#000000" stroke-width="15px"/>
<!-- Line -->
<rect x="4950" y="2025" width="270" height="270" fill="#f2f2f2"
	stroke="#a0a0a0" stroke-width="15px"/>
<!-- Line -->
<rect x="4950" y="2475" width="270" height="270" fill="#f2f2f2"
	stroke="#a0a0a0" stroke-width="15px"/>
<!-- Line -->
<rect x="4950" y="2925" width="270" height="225" fill="#ffea7f"
	stroke="#000000" stroke-width="15px"/>
<!-- Line -->
<rect x="4500" y="2925" width="270" height="225" fill="#f2f2f2"
	stroke="#a0a0a0" stroke-width="15px"/>
<!-- Line -->
<rect x="5400" y="2925" width="270" height="225" fill="#f2f2f2"
	stroke="#a0a0a0" stroke-width="15px"/>
<!-- Line -->
<rect x="3825" y="2025" width="270" height="270"
	stroke="#000000" stroke-width="15px"/>
<!-- Line -->
<rect x="4950" y="1575" width="270" height="270"
	stroke="#000000" stroke-width="15px"/>
<!-- Line -->
<polyline points=" 4005,2250 4050,2250"
	stroke="#0000ff" stroke-width="30px" stroke-linecap="square"/>
<!-- Line -->
<polyline points=" 5085,1665 5130,1665"
	stroke="#0000ff" stroke-width="30px" stroke-linecap="square"/>
<!-- Line -->
<rect x="675" y="495" width="270" height="225" fill="#d8eed8"
	stroke="#000000" stroke-width="15px"/>
<!-- Line -->
<rect x="1125" y="495" width="270" height="225" fill="#f2f2f2"
	stroke="#a0a0a0" stroke-width="15px"/>
<!-- Line -->
<rect x="1125" y="900" width="270" height="270" fill="#f2f2f2"
	stroke="#a0a0a0" stroke-width="15px"/>
<!-- Line -->
<rect x="675" y="1350" width="270" height="270" fill="#f2f2f2"
	stroke="#a0a0a0" stroke-width="15px"/>
<!-- Line -->
<rect x="675" y="1800" width="270" height="270" fill="#f2f2f2"
	stroke="#a0a0a0" stroke-width="15px"/>
<!-- Line -->
<rect x="1125" y="1350" width="270" height="270" fill="#f2f2f2"
	stroke="#a0a0a0" stroke-width="15px"/>
<!-- Line -->
<rect x="1125" y="2250" width="270" height="270" fill="#f2f2f2"
	stroke="#000000" stroke-width="15px"/>
<!-- Line -->
<rect x="675" y="2250" width="270" height="270" fill="#f2f2f2"
	stroke="#a0a0a0" stroke-width="15px"/>
<!-- Line -->
<rect x="1125" y="2700" width="270" height="270" fill="#f2f2f2"
	stroke="#a0a0a0" stroke-width="15px"/>
<!-- Line -->
<rect x="675" y="2700" width="270" height="270" fill="#f2f2f2"
	stroke="#a0a0a0" stroke-width="15px"/>
<!-- Line -->
<rect x="1620" y="2250" width="450" height="270" fill="#d9b07f"
	stroke="#000000" stroke-width="15px"/>
<!-- Line -->
<rect x="1125" y="1800" width="270" height="270"
	stroke="#000000" stroke-width="15px"/>
<!-- Line -->
<rect x="675" y="900" width="270" height="270"
	stroke="#000000" stroke-width="15px"/>
<!-- Line -->
<polyline points=" 1260,1935 1305,1935"
	stroke="#0000ff" stroke-width="30px" stroke-linecap="square"/>
<!-- Line -->
<defs>
<clipPath id="cp0">
	<path clip-rule="evenodd" d="M 338,285 H 5928 V 3345 H 338 z
		M 3793,1995 3750,2038 3870,2140 3895,2115z"/>
</clipPath>
</defs>
<polyline points=" 3060,1710 3465,1710 3870,2115" clip-path="url(#cp0)"
	stroke="#d10000" stroke-width="30px"/>
<!-- Forward arrow to point 3870,2115 -->
<polygon points=" 3750,2038 3835,2080 3793,1995 3750,2038"
	stroke="#d10000" stroke-width="30px" stroke-miterlimit="8" fill="#d10000"/>
<!-- Line -->
<defs>
<clipPath id="cp1">
	<path clip-rule="evenodd" d="M 338,285 H 5928 V 3345 H 338 z
		M 4856,1698 4882,1752 5019,1673 5003,1641z"/>
</clipPath>
</defs>
<polyline points=" 3870,2205 4995,1665" clip-path="url(#cp1)"
	stroke="#d10000" stroke-width="30px"/>
<!-- Forward arrow to point 4995,1665 -->
<polygon points=" 4882,1752 4950,1686 4856,1698 4882,1752"
	stroke="#d10000" stroke-width="30px" stroke-miterlimit="8" fill="#d10000"/>
<!-- Line -->
<defs>
<clipPath id="cp2">
	<path clip-rule="evenodd" d="M 338,285 H 5928 V 3345 H 338 z
		M 5105,2874 5045,2878 5068,3034 5104,3032z"/>
</clipPath>
</defs>
<polyline points=" 4995,1755 5085,3015" clip-path="url(#cp2)"
	stroke="#d10000" stroke-width="30px"/>
<!-- Forward arrow to point 5085,3015 -->
<polygon points=" 5045,2878 5081,2966 5105,2874 5045,2878"
	stroke="#d10000" stroke-width="30px" stroke-miterlimit="8" fill="#d10000"/>
<!-- Line -->
<defs>
<clipPath id="cp3">
	<path clip-rule="evenodd" d="M 338,285 H 5928 V 3345 H 338 z
		M 783,862 725,847 698,1003 733,1012z"/>
</clipPath>
</defs>
<polyline points=" 810,630 720,990" clip-path="url(#cp3)"
	stroke="#d10000" stroke-width="30px"/>
<!-- Forward arrow to point 720,990 -->
<polygon points=" 725,847 732,942 783,862 725,847"
	stroke="#d10000" stroke-width="30px" stroke-miterlimit="8" fill="#d10000"/>
<!-- Line -->
<defs>
<clipPath id="cp4">
	<path clip-rule="evenodd" d="M 338,285 H 5928 V 3345 H 338 z
		M 1128,1753 1076,1783 1163,1914 1194,1897z"/>
</clipPath>
</defs>
<polyline points=" 720,1080 1170,1890" clip-path="url(#cp4)"
	stroke="#d10000" stroke-width="30px"/>
<!-- Forward arrow to point 1170,1890 -->
<polygon points=" 1076,1783 1146,1847 1128,1753 1076,1783"
	stroke="#d10000" stroke-width="30px" stroke-miterlimit="8" fill="#d10000"/>
<!-- Line -->
<defs>
<clipPath id="cp5">
	<path clip-rule="evenodd" d="M 338,285 H 5928 V 3345 H 338 z
		M 1570,2355 1570,2415 1728,2403 1728,2367z"/>
</clipPath>
</defs>
<polyline points=" 1170,1980 1215,2385 1710,2385" clip-path="url(#cp5)"
	stroke="#d10000" stroke-width="30px"/>
<!-- Forward arrow to point 1710,2385 -->
<polygon points=" 1570,2415 1660,2385 1570,2355 1570,2415"
	stroke="#d10000" stroke-width="30px" stroke-miterlimit="8" fill="#d10000"/>
<!-- Line -->
<defs>
<clipPath id="cp6">
	<path clip-rule="evenodd" d="M 338,285 H 5928 V 3345 H 338 z
		M 2661,1817 2698,1864 2815,1758 2793,1730z"/>
</clipPath>
</defs>
<polyline points=" 1980,2385 2790,1755" clip-path="url(#cp6)"
	stroke="#d10000" stroke-width="30px"/>
<!-- Forward arrow to point 2790,1755 -->
<polygon points=" 2698,1864 2751,1785 2661,1817 2698,1864"
	stroke="#d10000" stroke-width="30px" stroke-miterlimit="8" fill="#d10000"/>
<!-- Line -->
<polyline points=" 4320,1890 4365,2025"
	stroke="#ffffff" stroke-width="45px"/>
<!-- Line -->
<polyline points=" 4410,1845 4455,1980"
	stroke="#ffffff" stroke-width="45px"/>
<!-- Line -->
<polyline points=" 4500,1800 4545,1935"
	stroke="#ffffff" stroke-width="45px"/>
<!-- Line -->
<polyline points=" 4590,1755 4635,1890"
	stroke="#ffffff" stroke-width="45px"/>
<!-- Line -->
<polyline points=" 4680,1710 4725,1845"
	stroke="#ffffff" stroke-width="45px"/>
<!-- Line -->
<polyline points=" 4230,1935 4275,2070"
	stroke="#ffffff" stroke-width="45px"/>
<!-- Line -->
<polyline points=" 4140,1980 4185,2115"
	stroke="#ffffff" stroke-width="45px"/>
<!-- Text -->
<text xml:space="preserve" x="4005" y="2475" fill="#000000" font-family="Helvetica" font-style="normal" font-weight="bold" font-size="144" text-anchor="start">Mix, DA</text>
<!-- Text -->
<text xml:space="preserve" x="5085" y="3330" fill="#000000" font-family="Helvetica" font-style="normal" font-weight="bold" font-size="144" text-anchor="middle">Finalize</text>
<!-- Text -->
<text xml:space="preserve" x="4185" y="1980" fill="#b00000" font-family="Helvetica" font-style="normal" font-weight="bold" font-size="180" text-anchor="middle">3</text>
<!-- Text -->
<text xml:space="preserve" x="4770" y="1710" fill="#b00000" font-family="Helvetica" font-style="normal" font-weight="bold" font-size="180" text-anchor="end">64</text>
<!-- Text -->
<text xml:space="preserve" x="5085" y="2340" fill="#b00000" font-family="Helvetica" font-style="normal" font-weight="bold" font-size="180" text-anchor="start">65</text>
<!-- Text -->
<text xml:space="preserve" x="810" y="450" fill="#000000" font-family="Helvetica" font-style="normal" font-weight="bold" font-size="144" text-anchor="middle">Generate</text>
<!-- Text -->
<text xml:space="preserve" x="1440" y="1890" fill="#000000" font-family="Helvetica" font-style="normal" font-weight="bold" font-size="144" text-anchor="start">Mix, DA</text>
<!-- Text -->
<text xml:space="preserve" x="630" y="1125" fill="#000000" font-family="Helvetica" font-style="normal" font-weight="bold" font-size="144" text-anchor="end">DA</text>
<!-- Text -->
<text xml:space="preserve" x="720" y="810" fill="#b00000" font-family="Helvetica" font-style="normal" font-weight="bold" font-size="180" text-anchor="end">0</text>
<!-- Text -->
<text xml:space="preserve" x="990" y="1440" fill="#b00000" font-family="Helvetica" font-style="normal" font-weight="bold" font-size="180" text-anchor="middle">1</text>
<!-- Text -->
<text xml:space="preserve" x="2925" y="765" fill="#000000" font-family="Helvetica" font-style="normal" font-weight="bold" font-size="144" text-anchor="start">DA = DAG address calculation</text>
<!-- Text -->
<text xml:space="preserve" x="5175" y="1530" fill="#000000" font-family="Helvetica" font-style="normal" font-weight="bold" font-size="144" text-anchor="start">Mix, DA</text>
<!-- Text -->
<text xml:space="preserve" x="2430" y="1935" fill="#b00000" font-family="Helvetica" font-style="normal" font-weight="bold" font-size="180" text-anchor="middle">2</text>
</g>
</svg>
